<?xml version="1.0" encoding="utf-8" standalone="no"?>
<!DOCTYPE svg PUBLIC "-//W3C//DTD SVG 1.1//EN"
  "http://www.w3.org/Graphics/SVG/1.1/DTD/svg11.dtd">
<!-- Created with matplotlib (https://matplotlib.org/) -->
<svg height="288pt" version="1.1" viewBox="0 0 432 288" width="432pt" xmlns="http://www.w3.org/2000/svg" xmlns:xlink="http://www.w3.org/1999/xlink">
 <defs>
  <style type="text/css">
*{stroke-linecap:butt;stroke-linejoin:round;}
  </style>
 </defs>
 <g id="figure_1">
  <g id="patch_1">
   <path d="M 0 288 
L 432 288 
L 432 0 
L 0 0 
z
" style="fill:#ffffff;"/>
  </g>
  <g id="axes_1">
   <g id="patch_2">
    <path d="M 32.114646 259.161354 
L 429.165354 259.161354 
L 429.165354 19.634646 
L 32.114646 19.634646 
z
" style="fill:#ffffff;"/>
   </g>
   <g id="matplotlib.axis_1">
    <g id="xtick_1">
     <g id="line2d_1">
      <path clip-path="url(#p12b3aec8ba)" d="M 43.35193 259.161354 
L 43.35193 19.634646 
" style="fill:none;stroke:#000000;stroke-linecap:square;stroke-opacity:0.1;stroke-width:0.5;"/>
     </g>
     <g id="line2d_2">
      <defs>
       <path d="M 0 0 
L 0 -3.5 
" id="m7b7985b761" style="stroke:#000000;stroke-width:0.8;"/>
      </defs>
      <g>
       <use style="stroke:#000000;stroke-width:0.8;" x="43.35193" xlink:href="#m7b7985b761" y="259.161354"/>
      </g>
     </g>
     <g id="text_1">
      <!-- -0.5 -->
      <defs>
       <path d="M 4.890625 31.390625 
L 31.203125 31.390625 
L 31.203125 23.390625 
L 4.890625 23.390625 
z
" id="DejaVuSans-45"/>
       <path d="M 31.78125 66.40625 
Q 24.171875 66.40625 20.328125 58.90625 
Q 16.5 51.421875 16.5 36.375 
Q 16.5 21.390625 20.328125 13.890625 
Q 24.171875 6.390625 31.78125 6.390625 
Q 39.453125 6.390625 43.28125 13.890625 
Q 47.125 21.390625 47.125 36.375 
Q 47.125 51.421875 43.28125 58.90625 
Q 39.453125 66.40625 31.78125 66.40625 
z
M 31.78125 74.21875 
Q 44.046875 74.21875 50.515625 64.515625 
Q 56.984375 54.828125 56.984375 36.375 
Q 56.984375 17.96875 50.515625 8.265625 
Q 44.046875 -1.421875 31.78125 -1.421875 
Q 19.53125 -1.421875 13.0625 8.265625 
Q 6.59375 17.96875 6.59375 36.375 
Q 6.59375 54.828125 13.0625 64.515625 
Q 19.53125 74.21875 31.78125 74.21875 
z
" id="DejaVuSans-48"/>
       <path d="M 10.6875 12.40625 
L 21 12.40625 
L 21 0 
L 10.6875 0 
z
" id="DejaVuSans-46"/>
       <path d="M 10.796875 72.90625 
L 49.515625 72.90625 
L 49.515625 64.59375 
L 19.828125 64.59375 
L 19.828125 46.734375 
Q 21.96875 47.46875 24.109375 47.828125 
Q 26.265625 48.1875 28.421875 48.1875 
Q 40.625 48.1875 47.75 41.5 
Q 54.890625 34.8125 54.890625 23.390625 
Q 54.890625 11.625 47.5625 5.09375 
Q 40.234375 -1.421875 26.90625 -1.421875 
Q 22.3125 -1.421875 17.546875 -0.640625 
Q 12.796875 0.140625 7.71875 1.703125 
L 7.71875 11.625 
Q 12.109375 9.234375 16.796875 8.0625 
Q 21.484375 6.890625 26.703125 6.890625 
Q 35.15625 6.890625 40.078125 11.328125 
Q 45.015625 15.765625 45.015625 23.390625 
Q 45.015625 31 40.078125 35.4375 
Q 35.15625 39.890625 26.703125 39.890625 
Q 22.75 39.890625 18.8125 39.015625 
Q 14.890625 38.140625 10.796875 36.28125 
z
" id="DejaVuSans-53"/>
      </defs>
      <g transform="translate(35.547555 268.740104)scale(0.08 -0.08)">
       <use xlink:href="#DejaVuSans-45"/>
       <use x="36.083984" xlink:href="#DejaVuSans-48"/>
       <use x="99.707031" xlink:href="#DejaVuSans-46"/>
       <use x="131.494141" xlink:href="#DejaVuSans-53"/>
      </g>
     </g>
    </g>
    <g id="xtick_2">
     <g id="line2d_3">
      <path clip-path="url(#p12b3aec8ba)" d="M 105.781287 259.161354 
L 105.781287 19.634646 
" style="fill:none;stroke:#000000;stroke-linecap:square;stroke-opacity:0.1;stroke-width:0.5;"/>
     </g>
     <g id="line2d_4">
      <g>
       <use style="stroke:#000000;stroke-width:0.8;" x="105.781287" xlink:href="#m7b7985b761" y="259.161354"/>
      </g>
     </g>
     <g id="text_2">
      <!-- 0.0 -->
      <g transform="translate(99.420037 268.740104)scale(0.08 -0.08)">
       <use xlink:href="#DejaVuSans-48"/>
       <use x="63.623047" xlink:href="#DejaVuSans-46"/>
       <use x="95.410156" xlink:href="#DejaVuSans-48"/>
      </g>
     </g>
    </g>
    <g id="xtick_3">
     <g id="line2d_5">
      <path clip-path="url(#p12b3aec8ba)" d="M 168.210643 259.161354 
L 168.210643 19.634646 
" style="fill:none;stroke:#000000;stroke-linecap:square;stroke-opacity:0.1;stroke-width:0.5;"/>
     </g>
     <g id="line2d_6">
      <g>
       <use style="stroke:#000000;stroke-width:0.8;" x="168.210643" xlink:href="#m7b7985b761" y="259.161354"/>
      </g>
     </g>
     <g id="text_3">
      <!-- 0.5 -->
      <g transform="translate(161.849393 268.740104)scale(0.08 -0.08)">
       <use xlink:href="#DejaVuSans-48"/>
       <use x="63.623047" xlink:href="#DejaVuSans-46"/>
       <use x="95.410156" xlink:href="#DejaVuSans-53"/>
      </g>
     </g>
    </g>
    <g id="xtick_4">
     <g id="line2d_7">
      <path clip-path="url(#p12b3aec8ba)" d="M 230.64 259.161354 
L 230.64 19.634646 
" style="fill:none;stroke:#000000;stroke-linecap:square;stroke-opacity:0.1;stroke-width:0.5;"/>
     </g>
     <g id="line2d_8">
      <g>
       <use style="stroke:#000000;stroke-width:0.8;" x="230.64" xlink:href="#m7b7985b761" y="259.161354"/>
      </g>
     </g>
     <g id="text_4">
      <!-- 1.0 -->
      <defs>
       <path d="M 12.40625 8.296875 
L 28.515625 8.296875 
L 28.515625 63.921875 
L 10.984375 60.40625 
L 10.984375 69.390625 
L 28.421875 72.90625 
L 38.28125 72.90625 
L 38.28125 8.296875 
L 54.390625 8.296875 
L 54.390625 0 
L 12.40625 0 
z
" id="DejaVuSans-49"/>
      </defs>
      <g transform="translate(224.27875 268.740104)scale(0.08 -0.08)">
       <use xlink:href="#DejaVuSans-49"/>
       <use x="63.623047" xlink:href="#DejaVuSans-46"/>
       <use x="95.410156" xlink:href="#DejaVuSans-48"/>
      </g>
     </g>
    </g>
    <g id="xtick_5">
     <g id="line2d_9">
      <path clip-path="url(#p12b3aec8ba)" d="M 293.069357 259.161354 
L 293.069357 19.634646 
" style="fill:none;stroke:#000000;stroke-linecap:square;stroke-opacity:0.1;stroke-width:0.5;"/>
     </g>
     <g id="line2d_10">
      <g>
       <use style="stroke:#000000;stroke-width:0.8;" x="293.069357" xlink:href="#m7b7985b761" y="259.161354"/>
      </g>
     </g>
     <g id="text_5">
      <!-- 1.5 -->
      <g transform="translate(286.708107 268.740104)scale(0.08 -0.08)">
       <use xlink:href="#DejaVuSans-49"/>
       <use x="63.623047" xlink:href="#DejaVuSans-46"/>
       <use x="95.410156" xlink:href="#DejaVuSans-53"/>
      </g>
     </g>
    </g>
    <g id="xtick_6">
     <g id="line2d_11">
      <path clip-path="url(#p12b3aec8ba)" d="M 355.498713 259.161354 
L 355.498713 19.634646 
" style="fill:none;stroke:#000000;stroke-linecap:square;stroke-opacity:0.1;stroke-width:0.5;"/>
     </g>
     <g id="line2d_12">
      <g>
       <use style="stroke:#000000;stroke-width:0.8;" x="355.498713" xlink:href="#m7b7985b761" y="259.161354"/>
      </g>
     </g>
     <g id="text_6">
      <!-- 2.0 -->
      <defs>
       <path d="M 19.1875 8.296875 
L 53.609375 8.296875 
L 53.609375 0 
L 7.328125 0 
L 7.328125 8.296875 
Q 12.9375 14.109375 22.625 23.890625 
Q 32.328125 33.6875 34.8125 36.53125 
Q 39.546875 41.84375 41.421875 45.53125 
Q 43.3125 49.21875 43.3125 52.78125 
Q 43.3125 58.59375 39.234375 62.25 
Q 35.15625 65.921875 28.609375 65.921875 
Q 23.96875 65.921875 18.8125 64.3125 
Q 13.671875 62.703125 7.8125 59.421875 
L 7.8125 69.390625 
Q 13.765625 71.78125 18.9375 73 
Q 24.125 74.21875 28.421875 74.21875 
Q 39.75 74.21875 46.484375 68.546875 
Q 53.21875 62.890625 53.21875 53.421875 
Q 53.21875 48.921875 51.53125 44.890625 
Q 49.859375 40.875 45.40625 35.40625 
Q 44.1875 33.984375 37.640625 27.21875 
Q 31.109375 20.453125 19.1875 8.296875 
z
" id="DejaVuSans-50"/>
      </defs>
      <g transform="translate(349.137463 268.740104)scale(0.08 -0.08)">
       <use xlink:href="#DejaVuSans-50"/>
       <use x="63.623047" xlink:href="#DejaVuSans-46"/>
       <use x="95.410156" xlink:href="#DejaVuSans-48"/>
      </g>
     </g>
    </g>
    <g id="xtick_7">
     <g id="line2d_13">
      <path clip-path="url(#p12b3aec8ba)" d="M 417.92807 259.161354 
L 417.92807 19.634646 
" style="fill:none;stroke:#000000;stroke-linecap:square;stroke-opacity:0.1;stroke-width:0.5;"/>
     </g>
     <g id="line2d_14">
      <g>
       <use style="stroke:#000000;stroke-width:0.8;" x="417.92807" xlink:href="#m7b7985b761" y="259.161354"/>
      </g>
     </g>
     <g id="text_7">
      <!-- 2.5 -->
      <g transform="translate(411.56682 268.740104)scale(0.08 -0.08)">
       <use xlink:href="#DejaVuSans-50"/>
       <use x="63.623047" xlink:href="#DejaVuSans-46"/>
       <use x="95.410156" xlink:href="#DejaVuSans-53"/>
      </g>
     </g>
    </g>
    <g id="text_8">
     <!-- $x_1$ -->
     <defs>
      <path d="M 60.015625 54.6875 
L 34.90625 27.875 
L 50.296875 0 
L 39.984375 0 
L 28.421875 21.6875 
L 8.296875 0 
L -2.59375 0 
L 24.3125 28.8125 
L 10.015625 54.6875 
L 20.3125 54.6875 
L 30.8125 34.90625 
L 49.125 54.6875 
z
" id="DejaVuSans-Oblique-120"/>
     </defs>
     <g transform="translate(224.755 282.762136)scale(0.11 -0.11)">
      <use transform="translate(0 0.3125)" xlink:href="#DejaVuSans-Oblique-120"/>
      <use transform="translate(59.179688 -16.09375)scale(0.7)" xlink:href="#DejaVuSans-49"/>
     </g>
    </g>
   </g>
   <g id="matplotlib.axis_2">
    <g id="ytick_1">
     <g id="line2d_15">
      <path clip-path="url(#p12b3aec8ba)" d="M 32.114646 219.221607 
L 429.165354 219.221607 
" style="fill:none;stroke:#000000;stroke-linecap:square;stroke-opacity:0.1;stroke-width:0.5;"/>
     </g>
     <g id="line2d_16">
      <defs>
       <path d="M 0 0 
L 3.5 0 
" id="m1390c1af69" style="stroke:#000000;stroke-width:0.8;"/>
      </defs>
      <g>
       <use style="stroke:#000000;stroke-width:0.8;" x="32.114646" xlink:href="#m1390c1af69" y="219.221607"/>
      </g>
     </g>
     <g id="text_9">
      <!-- 0 -->
      <g transform="translate(23.524646 222.260982)scale(0.08 -0.08)">
       <use xlink:href="#DejaVuSans-48"/>
      </g>
     </g>
    </g>
    <g id="ytick_2">
     <g id="line2d_17">
      <path clip-path="url(#p12b3aec8ba)" d="M 32.114646 161.527115 
L 429.165354 161.527115 
" style="fill:none;stroke:#000000;stroke-linecap:square;stroke-opacity:0.1;stroke-width:0.5;"/>
     </g>
     <g id="line2d_18">
      <g>
       <use style="stroke:#000000;stroke-width:0.8;" x="32.114646" xlink:href="#m1390c1af69" y="161.527115"/>
      </g>
     </g>
     <g id="text_10">
      <!-- 5 -->
      <g transform="translate(23.524646 164.56649)scale(0.08 -0.08)">
       <use xlink:href="#DejaVuSans-53"/>
      </g>
     </g>
    </g>
    <g id="ytick_3">
     <g id="line2d_19">
      <path clip-path="url(#p12b3aec8ba)" d="M 32.114646 103.832622 
L 429.165354 103.832622 
" style="fill:none;stroke:#000000;stroke-linecap:square;stroke-opacity:0.1;stroke-width:0.5;"/>
     </g>
     <g id="line2d_20">
      <g>
       <use style="stroke:#000000;stroke-width:0.8;" x="32.114646" xlink:href="#m1390c1af69" y="103.832622"/>
      </g>
     </g>
     <g id="text_11">
      <!-- 10 -->
      <g transform="translate(18.434646 106.871997)scale(0.08 -0.08)">
       <use xlink:href="#DejaVuSans-49"/>
       <use x="63.623047" xlink:href="#DejaVuSans-48"/>
      </g>
     </g>
    </g>
    <g id="ytick_4">
     <g id="line2d_21">
      <path clip-path="url(#p12b3aec8ba)" d="M 32.114646 46.13813 
L 429.165354 46.13813 
" style="fill:none;stroke:#000000;stroke-linecap:square;stroke-opacity:0.1;stroke-width:0.5;"/>
     </g>
     <g id="line2d_22">
      <g>
       <use style="stroke:#000000;stroke-width:0.8;" x="32.114646" xlink:href="#m1390c1af69" y="46.13813"/>
      </g>
     </g>
     <g id="text_12">
      <!-- 15 -->
      <g transform="translate(18.434646 49.177505)scale(0.08 -0.08)">
       <use xlink:href="#DejaVuSans-49"/>
       <use x="63.623047" xlink:href="#DejaVuSans-53"/>
      </g>
     </g>
    </g>
    <g id="text_13">
     <!-- $y$ -->
     <defs>
      <path d="M 24.8125 -5.078125 
Q 18.5625 -15.578125 14.625 -18.1875 
Q 10.6875 -20.796875 4.59375 -20.796875 
L -2.484375 -20.796875 
L -0.984375 -13.28125 
L 4.203125 -13.28125 
Q 7.953125 -13.28125 10.59375 -11.234375 
Q 13.234375 -9.1875 16.5 -3.21875 
L 19.28125 2 
L 7.171875 54.6875 
L 16.703125 54.6875 
L 25.78125 12.796875 
L 50.875 54.6875 
L 60.296875 54.6875 
z
" id="DejaVuSans-Oblique-121"/>
     </defs>
     <g transform="translate(12.124646 142.698)rotate(-90)scale(0.11 -0.11)">
      <use transform="translate(0 0.3125)" xlink:href="#DejaVuSans-Oblique-121"/>
     </g>
    </g>
   </g>
   <g id="line2d_23">
    <path clip-path="url(#p12b3aec8ba)" d="M 43.35193 160.805934 
L 45.973963 156.626823 
L 46.847974 155.628723 
L 47.597126 155.075547 
L 48.22142 154.873117 
L 48.845713 154.936119 
L 49.470007 155.28672 
L 50.0943 155.940373 
L 50.718594 156.905305 
L 51.467746 158.474464 
L 52.341757 160.853201 
L 53.340627 164.231679 
L 54.589214 169.265197 
L 56.711812 178.976163 
L 58.83441 188.360008 
L 60.082997 192.859245 
L 60.957008 195.295551 
L 61.706161 196.82478 
L 62.330454 197.667862 
L 62.829889 198.046498 
L 63.329324 198.156577 
L 63.828759 197.997132 
L 64.328194 197.571257 
L 64.952487 196.675614 
L 65.70164 195.099722 
L 66.575651 192.645894 
L 67.699379 188.714557 
L 69.57226 181.119971 
L 71.320282 174.322846 
L 72.319151 171.215905 
L 73.068304 169.478598 
L 73.692597 168.505545 
L 74.192032 168.076109 
L 74.566608 167.972671 
L 74.941184 168.065509 
L 75.315761 168.361011 
L 75.815195 169.078383 
L 76.439489 170.503572 
L 77.063782 172.516773 
L 77.812935 175.690671 
L 78.686946 180.375546 
L 79.810674 187.751989 
L 81.308979 199.301288 
L 84.680164 225.908341 
L 85.679034 231.973232 
L 86.428186 235.450707 
L 87.05248 237.502997 
L 87.551914 238.524502 
L 87.926491 238.901053 
L 88.176208 238.957769 
L 88.425925 238.854136 
L 88.800502 238.389911 
L 89.175078 237.545549 
L 89.674513 235.813466 
L 90.298806 232.654635 
L 91.047958 227.392792 
L 91.921969 219.248125 
L 92.920839 207.413841 
L 94.044568 191.192174 
L 95.418013 167.963707 
L 97.540611 127.718235 
L 100.162644 78.82975 
L 101.53609 57.331352 
L 102.53496 44.675526 
L 103.408971 36.100887 
L 104.158123 30.815145 
L 104.782417 27.958549 
L 105.281852 26.721043 
L 105.656428 26.413703 
L 105.656428 26.413703 
" style="fill:none;stroke:#009afa;stroke-linecap:round;"/>
   </g>
   <g id="line2d_24">
    <path clip-path="url(#p12b3aec8ba)" d="M 105.906145 26.506015 
L 106.155863 26.836174 
L 106.530439 27.775996 
L 107.029874 29.851601 
L 107.654167 33.741277 
L 108.40332 40.234434 
L 109.277331 50.156184 
L 110.2762 64.246891 
L 111.524787 85.229996 
L 113.272809 118.761419 
L 116.893712 189.315195 
L 118.267158 211.650936 
L 119.390886 226.716453 
L 120.389756 237.308551 
L 121.263767 244.277225 
L 122.012919 248.515481 
L 122.637213 250.840307 
L 123.136648 251.933304 
L 123.511224 252.321707 
L 123.8858 252.354681 
L 124.260376 252.047181 
L 124.634952 251.415945 
L 125.134387 250.102697 
L 125.758681 247.770922 
L 126.507833 244.095778 
L 127.506703 238.021206 
L 129.005007 227.362699 
L 131.62704 208.578507 
L 132.750769 201.994349 
L 133.749638 197.405902 
L 134.498791 194.871497 
L 135.123084 193.394704 
L 135.622519 192.638859 
L 136.121954 192.261613 
L 136.49653 192.224003 
L 136.871106 192.392071 
L 137.370541 192.925752 
L 137.869976 193.796465 
L 138.494269 195.324321 
L 139.243422 197.732185 
L 140.242291 201.741537 
L 141.740596 208.881631 
L 144.737205 223.443559 
L 145.860934 227.784913 
L 146.734945 230.421663 
L 147.484097 232.088569 
L 148.10839 233.031705 
L 148.607825 233.487128 
L 149.10726 233.676416 
L 149.606695 233.603555 
L 150.10613 233.276373 
L 150.730423 232.527569 
L 151.479576 231.170963 
L 152.353587 229.040753 
L 153.477315 225.631212 
L 155.350196 219.063672 
L 157.347935 212.303618 
L 158.471664 209.219069 
L 159.345675 207.368512 
L 160.094827 206.22823 
L 160.71912 205.616196 
L 161.343414 205.32137 
L 161.842849 205.314813 
L 162.342284 205.509008 
L 162.966577 206.02454 
L 163.71573 207.018436 
L 164.589741 208.63909 
L 165.58861 210.989089 
L 167.086915 215.168823 
L 170.083524 223.669122 
L 171.207252 226.166375 
L 172.081263 227.649762 
L 172.830416 228.551569 
L 173.454709 229.024201 
L 174.079003 229.236325 
L 174.703296 229.188073 
L 175.32759 228.885824 
L 175.951884 228.341943 
L 176.701036 227.395969 
L 177.575047 225.940132 
L 178.823634 223.35674 
L 181.445667 217.159568 
L 182.943971 213.973593 
L 184.0677 212.095973 
L 184.941711 211.040092 
L 185.690863 210.454248 
L 186.315157 210.203587 
L 186.93945 210.172376 
L 187.563744 210.358262 
L 188.312896 210.856864 
L 189.062048 211.634432 
L 189.936059 212.851299 
L 191.059788 214.805104 
L 192.932669 218.606618 
L 195.055267 222.808801 
L 196.303854 224.782672 
L 197.302724 225.937873 
L 198.051876 226.513615 
L 198.801028 226.821701 
L 199.425322 226.869132 
L 200.049615 226.727606 
L 200.798767 226.317156 
L 201.672778 225.531027 
L 202.671648 224.282067 
L 203.920235 222.32274 
L 208.664866 214.417502 
L 209.663736 213.357479 
L 210.537747 212.743814 
L 211.286899 212.471257 
L 212.036052 212.439654 
L 212.785204 212.646768 
L 213.534356 213.08204 
L 214.408367 213.853274 
L 215.407237 215.030457 
L 216.780683 217.021508 
L 220.651303 222.907218 
L 221.775031 224.128482 
L 222.649042 224.798715 
L 223.523053 225.192326 
L 224.272206 225.298033 
L 225.021358 225.18849 
L 225.77051 224.870242 
L 226.644521 224.253937 
L 227.643391 223.268181 
L 228.891978 221.712998 
L 233.761468 215.241489 
L 234.760338 214.414229 
L 235.634349 213.945547 
L 236.50836 213.735549 
L 237.257512 213.766773 
L 238.131523 214.044974 
L 239.005534 214.567197 
L 240.004404 215.42625 
L 241.252991 216.806926 
L 243.500447 219.71256 
L 245.373328 221.984509 
L 246.621915 223.1595 
L 247.620785 223.813042 
L 248.494796 224.142856 
L 249.368807 224.232678 
L 250.242818 224.081063 
L 251.116829 223.6981 
L 252.115699 223.004543 
L 253.364286 221.824366 
L 255.112308 219.80918 
L 257.734341 216.782801 
L 258.982928 215.663888 
L 259.981798 215.023973 
L 260.980667 214.651605 
L 261.854678 214.560974 
L 262.728689 214.691952 
L 263.6027 215.03553 
L 264.60157 215.663607 
L 265.850157 216.737226 
L 267.598179 218.575078 
L 270.345071 221.449153 
L 271.593658 222.43552 
L 272.717386 223.033093 
L 273.716256 223.294878 
L 274.590267 223.303383 
L 275.464278 223.106738 
L 276.463148 222.645057 
L 277.586876 221.861224 
L 278.960322 220.614781 
L 283.829812 215.892258 
L 284.95354 215.226133 
L 285.95241 214.87526 
L 286.95128 214.769994 
L 287.950149 214.912064 
L 288.949019 215.28764 
L 290.072748 215.953453 
L 291.571052 217.139871 
L 296.065966 220.943176 
L 297.189694 221.529747 
L 298.188564 221.828466 
L 299.187434 221.896175 
L 300.186303 221.727188 
L 301.185173 221.33048 
L 302.308902 220.641021 
L 303.682347 219.522735 
L 306.054663 217.235074 
L 308.052402 215.423249 
L 309.425848 214.466631 
L 310.549577 213.939926 
L 311.548446 213.693105 
L 312.547316 213.662473 
L 313.546186 213.841337 
L 314.669914 214.267657 
L 316.04336 215.04536 
L 318.290817 216.632167 
L 320.288556 217.954405 
L 321.662002 218.599327 
L 322.785731 218.88522 
L 323.7846 218.926219 
L 324.78347 218.755487 
L 325.907198 218.314204 
L 327.030927 217.631738 
L 328.404373 216.531549 
L 330.526971 214.495274 
L 333.149004 212.03726 
L 334.52245 211.033456 
L 335.771037 210.388048 
L 336.894765 210.054436 
L 338.018494 209.959697 
L 339.142222 210.088211 
L 340.390809 210.451259 
L 342.138831 211.218881 
L 345.260299 212.638666 
L 346.633745 212.990253 
L 347.757473 213.057008 
L 348.881202 212.891359 
L 350.00493 212.480778 
L 351.128658 211.831395 
L 352.377246 210.859673 
L 354.000409 209.295034 
L 359.369334 203.834484 
L 360.742779 202.881964 
L 361.991367 202.282762 
L 363.239954 201.942256 
L 364.488541 201.837581 
L 365.986845 201.955486 
L 371.230911 202.650962 
L 372.479498 202.448943 
L 373.603227 202.045309 
L 374.726955 201.415107 
L 375.975542 200.451516 
L 377.348988 199.102706 
L 379.09701 197.05268 
L 384.590794 190.32808 
L 386.089098 188.960239 
L 387.462544 187.993594 
L 388.83599 187.295847 
L 390.334294 186.792177 
L 392.456893 186.354166 
L 394.954067 185.812808 
L 396.452371 185.242548 
L 397.700959 184.534139 
L 398.949546 183.574027 
L 400.322992 182.211385 
L 401.821296 180.376814 
L 403.569318 177.861453 
L 406.690786 172.873856 
L 409.312819 168.872359 
L 411.060841 166.583118 
L 412.684004 164.805324 
L 414.307167 163.349181 
L 416.304907 161.883515 
L 417.92807 160.805934 
L 417.92807 160.805934 
" style="fill:none;stroke:#009afa;stroke-linecap:round;"/>
   </g>
   <g id="patch_3">
    <path d="M 32.114646 259.161354 
L 32.114646 19.634646 
" style="fill:none;stroke:#000000;stroke-linecap:square;stroke-linejoin:miter;"/>
   </g>
   <g id="patch_4">
    <path d="M 429.165354 259.161354 
L 429.165354 19.634646 
" style="fill:none;stroke:#000000;stroke-linecap:square;stroke-linejoin:miter;stroke-width:0.8;"/>
   </g>
   <g id="patch_5">
    <path d="M 32.114646 259.161354 
L 429.165354 259.161354 
" style="fill:none;stroke:#000000;stroke-linecap:square;stroke-linejoin:miter;"/>
   </g>
   <g id="patch_6">
    <path d="M 32.114646 19.634646 
L 429.165354 19.634646 
" style="fill:none;stroke:#000000;stroke-linecap:square;stroke-linejoin:miter;stroke-width:0.8;"/>
   </g>
   <g id="text_14">
    <!-- Gramacy-lee Function -->
    <defs>
     <path d="M 59.515625 10.40625 
L 59.515625 29.984375 
L 43.40625 29.984375 
L 43.40625 38.09375 
L 69.28125 38.09375 
L 69.28125 6.78125 
Q 63.578125 2.734375 56.6875 0.65625 
Q 49.8125 -1.421875 42 -1.421875 
Q 24.90625 -1.421875 15.25 8.5625 
Q 5.609375 18.5625 5.609375 36.375 
Q 5.609375 54.25 15.25 64.234375 
Q 24.90625 74.21875 42 74.21875 
Q 49.125 74.21875 55.546875 72.453125 
Q 61.96875 70.703125 67.390625 67.28125 
L 67.390625 56.78125 
Q 61.921875 61.421875 55.765625 63.765625 
Q 49.609375 66.109375 42.828125 66.109375 
Q 29.4375 66.109375 22.71875 58.640625 
Q 16.015625 51.171875 16.015625 36.375 
Q 16.015625 21.625 22.71875 14.15625 
Q 29.4375 6.6875 42.828125 6.6875 
Q 48.046875 6.6875 52.140625 7.59375 
Q 56.25 8.5 59.515625 10.40625 
z
" id="DejaVuSans-71"/>
     <path d="M 41.109375 46.296875 
Q 39.59375 47.171875 37.8125 47.578125 
Q 36.03125 48 33.890625 48 
Q 26.265625 48 22.1875 43.046875 
Q 18.109375 38.09375 18.109375 28.8125 
L 18.109375 0 
L 9.078125 0 
L 9.078125 54.6875 
L 18.109375 54.6875 
L 18.109375 46.1875 
Q 20.953125 51.171875 25.484375 53.578125 
Q 30.03125 56 36.53125 56 
Q 37.453125 56 38.578125 55.875 
Q 39.703125 55.765625 41.0625 55.515625 
z
" id="DejaVuSans-114"/>
     <path d="M 34.28125 27.484375 
Q 23.390625 27.484375 19.1875 25 
Q 14.984375 22.515625 14.984375 16.5 
Q 14.984375 11.71875 18.140625 8.90625 
Q 21.296875 6.109375 26.703125 6.109375 
Q 34.1875 6.109375 38.703125 11.40625 
Q 43.21875 16.703125 43.21875 25.484375 
L 43.21875 27.484375 
z
M 52.203125 31.203125 
L 52.203125 0 
L 43.21875 0 
L 43.21875 8.296875 
Q 40.140625 3.328125 35.546875 0.953125 
Q 30.953125 -1.421875 24.3125 -1.421875 
Q 15.921875 -1.421875 10.953125 3.296875 
Q 6 8.015625 6 15.921875 
Q 6 25.140625 12.171875 29.828125 
Q 18.359375 34.515625 30.609375 34.515625 
L 43.21875 34.515625 
L 43.21875 35.40625 
Q 43.21875 41.609375 39.140625 45 
Q 35.0625 48.390625 27.6875 48.390625 
Q 23 48.390625 18.546875 47.265625 
Q 14.109375 46.140625 10.015625 43.890625 
L 10.015625 52.203125 
Q 14.9375 54.109375 19.578125 55.046875 
Q 24.21875 56 28.609375 56 
Q 40.484375 56 46.34375 49.84375 
Q 52.203125 43.703125 52.203125 31.203125 
z
" id="DejaVuSans-97"/>
     <path d="M 52 44.1875 
Q 55.375 50.25 60.0625 53.125 
Q 64.75 56 71.09375 56 
Q 79.640625 56 84.28125 50.015625 
Q 88.921875 44.046875 88.921875 33.015625 
L 88.921875 0 
L 79.890625 0 
L 79.890625 32.71875 
Q 79.890625 40.578125 77.09375 44.375 
Q 74.3125 48.1875 68.609375 48.1875 
Q 61.625 48.1875 57.5625 43.546875 
Q 53.515625 38.921875 53.515625 30.90625 
L 53.515625 0 
L 44.484375 0 
L 44.484375 32.71875 
Q 44.484375 40.625 41.703125 44.40625 
Q 38.921875 48.1875 33.109375 48.1875 
Q 26.21875 48.1875 22.15625 43.53125 
Q 18.109375 38.875 18.109375 30.90625 
L 18.109375 0 
L 9.078125 0 
L 9.078125 54.6875 
L 18.109375 54.6875 
L 18.109375 46.1875 
Q 21.1875 51.21875 25.484375 53.609375 
Q 29.78125 56 35.6875 56 
Q 41.65625 56 45.828125 52.96875 
Q 50 49.953125 52 44.1875 
z
" id="DejaVuSans-109"/>
     <path d="M 48.78125 52.59375 
L 48.78125 44.1875 
Q 44.96875 46.296875 41.140625 47.34375 
Q 37.3125 48.390625 33.40625 48.390625 
Q 24.65625 48.390625 19.8125 42.84375 
Q 14.984375 37.3125 14.984375 27.296875 
Q 14.984375 17.28125 19.8125 11.734375 
Q 24.65625 6.203125 33.40625 6.203125 
Q 37.3125 6.203125 41.140625 7.25 
Q 44.96875 8.296875 48.78125 10.40625 
L 48.78125 2.09375 
Q 45.015625 0.34375 40.984375 -0.53125 
Q 36.96875 -1.421875 32.421875 -1.421875 
Q 20.0625 -1.421875 12.78125 6.34375 
Q 5.515625 14.109375 5.515625 27.296875 
Q 5.515625 40.671875 12.859375 48.328125 
Q 20.21875 56 33.015625 56 
Q 37.15625 56 41.109375 55.140625 
Q 45.0625 54.296875 48.78125 52.59375 
z
" id="DejaVuSans-99"/>
     <path d="M 32.171875 -5.078125 
Q 28.375 -14.84375 24.75 -17.8125 
Q 21.140625 -20.796875 15.09375 -20.796875 
L 7.90625 -20.796875 
L 7.90625 -13.28125 
L 13.1875 -13.28125 
Q 16.890625 -13.28125 18.9375 -11.515625 
Q 21 -9.765625 23.484375 -3.21875 
L 25.09375 0.875 
L 2.984375 54.6875 
L 12.5 54.6875 
L 29.59375 11.921875 
L 46.6875 54.6875 
L 56.203125 54.6875 
z
" id="DejaVuSans-121"/>
     <path d="M 9.421875 75.984375 
L 18.40625 75.984375 
L 18.40625 0 
L 9.421875 0 
z
" id="DejaVuSans-108"/>
     <path d="M 56.203125 29.59375 
L 56.203125 25.203125 
L 14.890625 25.203125 
Q 15.484375 15.921875 20.484375 11.0625 
Q 25.484375 6.203125 34.421875 6.203125 
Q 39.59375 6.203125 44.453125 7.46875 
Q 49.3125 8.734375 54.109375 11.28125 
L 54.109375 2.78125 
Q 49.265625 0.734375 44.1875 -0.34375 
Q 39.109375 -1.421875 33.890625 -1.421875 
Q 20.796875 -1.421875 13.15625 6.1875 
Q 5.515625 13.8125 5.515625 26.8125 
Q 5.515625 40.234375 12.765625 48.109375 
Q 20.015625 56 32.328125 56 
Q 43.359375 56 49.78125 48.890625 
Q 56.203125 41.796875 56.203125 29.59375 
z
M 47.21875 32.234375 
Q 47.125 39.59375 43.09375 43.984375 
Q 39.0625 48.390625 32.421875 48.390625 
Q 24.90625 48.390625 20.390625 44.140625 
Q 15.875 39.890625 15.1875 32.171875 
z
" id="DejaVuSans-101"/>
     <path id="DejaVuSans-32"/>
     <path d="M 9.8125 72.90625 
L 51.703125 72.90625 
L 51.703125 64.59375 
L 19.671875 64.59375 
L 19.671875 43.109375 
L 48.578125 43.109375 
L 48.578125 34.8125 
L 19.671875 34.8125 
L 19.671875 0 
L 9.8125 0 
z
" id="DejaVuSans-70"/>
     <path d="M 8.5 21.578125 
L 8.5 54.6875 
L 17.484375 54.6875 
L 17.484375 21.921875 
Q 17.484375 14.15625 20.5 10.265625 
Q 23.53125 6.390625 29.59375 6.390625 
Q 36.859375 6.390625 41.078125 11.03125 
Q 45.3125 15.671875 45.3125 23.6875 
L 45.3125 54.6875 
L 54.296875 54.6875 
L 54.296875 0 
L 45.3125 0 
L 45.3125 8.40625 
Q 42.046875 3.421875 37.71875 1 
Q 33.40625 -1.421875 27.6875 -1.421875 
Q 18.265625 -1.421875 13.375 4.4375 
Q 8.5 10.296875 8.5 21.578125 
z
M 31.109375 56 
z
" id="DejaVuSans-117"/>
     <path d="M 54.890625 33.015625 
L 54.890625 0 
L 45.90625 0 
L 45.90625 32.71875 
Q 45.90625 40.484375 42.875 44.328125 
Q 39.84375 48.1875 33.796875 48.1875 
Q 26.515625 48.1875 22.3125 43.546875 
Q 18.109375 38.921875 18.109375 30.90625 
L 18.109375 0 
L 9.078125 0 
L 9.078125 54.6875 
L 18.109375 54.6875 
L 18.109375 46.1875 
Q 21.34375 51.125 25.703125 53.5625 
Q 30.078125 56 35.796875 56 
Q 45.21875 56 50.046875 50.171875 
Q 54.890625 44.34375 54.890625 33.015625 
z
" id="DejaVuSans-110"/>
     <path d="M 18.3125 70.21875 
L 18.3125 54.6875 
L 36.8125 54.6875 
L 36.8125 47.703125 
L 18.3125 47.703125 
L 18.3125 18.015625 
Q 18.3125 11.328125 20.140625 9.421875 
Q 21.96875 7.515625 27.59375 7.515625 
L 36.8125 7.515625 
L 36.8125 0 
L 27.59375 0 
Q 17.1875 0 13.234375 3.875 
Q 9.28125 7.765625 9.28125 18.015625 
L 9.28125 47.703125 
L 2.6875 47.703125 
L 2.6875 54.6875 
L 9.28125 54.6875 
L 9.28125 70.21875 
z
" id="DejaVuSans-116"/>
     <path d="M 9.421875 54.6875 
L 18.40625 54.6875 
L 18.40625 0 
L 9.421875 0 
z
M 9.421875 75.984375 
L 18.40625 75.984375 
L 18.40625 64.59375 
L 9.421875 64.59375 
z
" id="DejaVuSans-105"/>
     <path d="M 30.609375 48.390625 
Q 23.390625 48.390625 19.1875 42.75 
Q 14.984375 37.109375 14.984375 27.296875 
Q 14.984375 17.484375 19.15625 11.84375 
Q 23.34375 6.203125 30.609375 6.203125 
Q 37.796875 6.203125 41.984375 11.859375 
Q 46.1875 17.53125 46.1875 27.296875 
Q 46.1875 37.015625 41.984375 42.703125 
Q 37.796875 48.390625 30.609375 48.390625 
z
M 30.609375 56 
Q 42.328125 56 49.015625 48.375 
Q 55.71875 40.765625 55.71875 27.296875 
Q 55.71875 13.875 49.015625 6.21875 
Q 42.328125 -1.421875 30.609375 -1.421875 
Q 18.84375 -1.421875 12.171875 6.21875 
Q 5.515625 13.875 5.515625 27.296875 
Q 5.515625 40.765625 12.171875 48.375 
Q 18.84375 56 30.609375 56 
z
" id="DejaVuSans-111"/>
    </defs>
    <g transform="translate(153.490156 13.634646)scale(0.14 -0.14)">
     <use xlink:href="#DejaVuSans-71"/>
     <use x="77.490234" xlink:href="#DejaVuSans-114"/>
     <use x="118.603516" xlink:href="#DejaVuSans-97"/>
     <use x="179.882812" xlink:href="#DejaVuSans-109"/>
     <use x="277.294922" xlink:href="#DejaVuSans-97"/>
     <use x="338.574219" xlink:href="#DejaVuSans-99"/>
     <use x="393.554688" xlink:href="#DejaVuSans-121"/>
     <use x="452.71875" xlink:href="#DejaVuSans-45"/>
     <use x="488.802734" xlink:href="#DejaVuSans-108"/>
     <use x="516.585938" xlink:href="#DejaVuSans-101"/>
     <use x="578.109375" xlink:href="#DejaVuSans-101"/>
     <use x="639.632812" xlink:href="#DejaVuSans-32"/>
     <use x="671.419922" xlink:href="#DejaVuSans-70"/>
     <use x="728.861328" xlink:href="#DejaVuSans-117"/>
     <use x="792.240234" xlink:href="#DejaVuSans-110"/>
     <use x="855.619141" xlink:href="#DejaVuSans-99"/>
     <use x="910.599609" xlink:href="#DejaVuSans-116"/>
     <use x="949.808594" xlink:href="#DejaVuSans-105"/>
     <use x="977.591797" xlink:href="#DejaVuSans-111"/>
     <use x="1038.773438" xlink:href="#DejaVuSans-110"/>
    </g>
   </g>
  </g>
 </g>
 <defs>
  <clipPath id="p12b3aec8ba">
   <rect height="239.526709" width="397.050709" x="32.114646" y="19.634646"/>
  </clipPath>
 </defs>
</svg>
