<svg xmlns="http://www.w3.org/2000/svg" xmlns:xlink="http://www.w3.org/1999/xlink" width="576" height="384" version="1.1" viewBox="0 0 432 288"><defs><style type="text/css">*{stroke-linecap:butt;stroke-linejoin:round}</style></defs><g id="figure_1"><g id="patch_1"><path fill="#fff" d="M 0 288 L 432 288 L 432 0 L 0 0 z"/></g><g id="axes_1"><g id="patch_2"><path fill="#fff" d="M 26.984646 259.161354 L 429.165354 259.161354 L 429.165354 19.634646 L 26.984646 19.634646 z"/></g><g id="matplotlib.axis_1"><g id="xtick_1"><g id="line2d_1"><path fill="none" stroke="#000" stroke-linecap="square" stroke-opacity=".1" stroke-width=".5" d="M 38.367119 259.161354 L 38.367119 19.634646" clip-path="url(#p2aa4c57eaa)"/></g><g id="line2d_2"><defs><path id="m0c4e728bea" stroke="#000" stroke-width=".8" d="M 0 0 L 0 -3.5"/></defs><g><use x="38.367" y="259.161" stroke="#000" stroke-width=".8" xlink:href="#m0c4e728bea"/></g></g><g id="text_1"><defs><path id="DejaVuSans-45" d="M 4.890625 31.390625 L 31.203125 31.390625 L 31.203125 23.390625 L 4.890625 23.390625 z"/><path id="DejaVuSans-49" d="M 12.40625 8.296875 L 28.515625 8.296875 L 28.515625 63.921875 L 10.984375 60.40625 L 10.984375 69.390625 L 28.421875 72.90625 L 38.28125 72.90625 L 38.28125 8.296875 L 54.390625 8.296875 L 54.390625 0 L 12.40625 0 z"/><path id="DejaVuSans-48" d="M 31.78125 66.40625 Q 24.171875 66.40625 20.328125 58.90625 Q 16.5 51.421875 16.5 36.375 Q 16.5 21.390625 20.328125 13.890625 Q 24.171875 6.390625 31.78125 6.390625 Q 39.453125 6.390625 43.28125 13.890625 Q 47.125 21.390625 47.125 36.375 Q 47.125 51.421875 43.28125 58.90625 Q 39.453125 66.40625 31.78125 66.40625 z M 31.78125 74.21875 Q 44.046875 74.21875 50.515625 64.515625 Q 56.984375 54.828125 56.984375 36.375 Q 56.984375 17.96875 50.515625 8.265625 Q 44.046875 -1.421875 31.78125 -1.421875 Q 19.53125 -1.421875 13.0625 8.265625 Q 6.59375 17.96875 6.59375 36.375 Q 6.59375 54.828125 13.0625 64.515625 Q 19.53125 74.21875 31.78125 74.21875 z"/></defs><g transform="translate(31.833994 268.740104)scale(0.08 -0.08)"><use xlink:href="#DejaVuSans-45"/><use x="36.084" xlink:href="#DejaVuSans-49"/><use x="99.707" xlink:href="#DejaVuSans-48"/></g></g></g><g id="xtick_2"><g id="line2d_3"><path fill="none" stroke="#000" stroke-linecap="square" stroke-opacity=".1" stroke-width=".5" d="M 133.221059 259.161354 L 133.221059 19.634646" clip-path="url(#p2aa4c57eaa)"/></g><g id="line2d_4"><g><use x="133.221" y="259.161" stroke="#000" stroke-width=".8" xlink:href="#m0c4e728bea"/></g></g><g id="text_2"><defs><path id="DejaVuSans-53" d="M 10.796875 72.90625 L 49.515625 72.90625 L 49.515625 64.59375 L 19.828125 64.59375 L 19.828125 46.734375 Q 21.96875 47.46875 24.109375 47.828125 Q 26.265625 48.1875 28.421875 48.1875 Q 40.625 48.1875 47.75 41.5 Q 54.890625 34.8125 54.890625 23.390625 Q 54.890625 11.625 47.5625 5.09375 Q 40.234375 -1.421875 26.90625 -1.421875 Q 22.3125 -1.421875 17.546875 -0.640625 Q 12.796875 0.140625 7.71875 1.703125 L 7.71875 11.625 Q 12.109375 9.234375 16.796875 8.0625 Q 21.484375 6.890625 26.703125 6.890625 Q 35.15625 6.890625 40.078125 11.328125 Q 45.015625 15.765625 45.015625 23.390625 Q 45.015625 31 40.078125 35.4375 Q 35.15625 39.890625 26.703125 39.890625 Q 22.75 39.890625 18.8125 39.015625 Q 14.890625 38.140625 10.796875 36.28125 z"/></defs><g transform="translate(129.232934 268.740104)scale(0.08 -0.08)"><use xlink:href="#DejaVuSans-45"/><use x="36.084" xlink:href="#DejaVuSans-53"/></g></g></g><g id="xtick_3"><g id="line2d_5"><path fill="none" stroke="#000" stroke-linecap="square" stroke-opacity=".1" stroke-width=".5" d="M 228.075 259.161354 L 228.075 19.634646" clip-path="url(#p2aa4c57eaa)"/></g><g id="line2d_6"><g><use x="228.075" y="259.161" stroke="#000" stroke-width=".8" xlink:href="#m0c4e728bea"/></g></g><g id="text_3"><g transform="translate(225.53 268.740104)scale(0.08 -0.08)"><use xlink:href="#DejaVuSans-48"/></g></g></g><g id="xtick_4"><g id="line2d_7"><path fill="none" stroke="#000" stroke-linecap="square" stroke-opacity=".1" stroke-width=".5" d="M 322.928941 259.161354 L 322.928941 19.634646" clip-path="url(#p2aa4c57eaa)"/></g><g id="line2d_8"><g><use x="322.929" y="259.161" stroke="#000" stroke-width=".8" xlink:href="#m0c4e728bea"/></g></g><g id="text_4"><g transform="translate(320.383941 268.740104)scale(0.08 -0.08)"><use xlink:href="#DejaVuSans-53"/></g></g></g><g id="xtick_5"><g id="line2d_9"><path fill="none" stroke="#000" stroke-linecap="square" stroke-opacity=".1" stroke-width=".5" d="M 417.782881 259.161354 L 417.782881 19.634646" clip-path="url(#p2aa4c57eaa)"/></g><g id="line2d_10"><g><use x="417.783" y="259.161" stroke="#000" stroke-width=".8" xlink:href="#m0c4e728bea"/></g></g><g id="text_5"><g transform="translate(412.692881 268.740104)scale(0.08 -0.08)"><use xlink:href="#DejaVuSans-49"/><use x="63.623" xlink:href="#DejaVuSans-48"/></g></g></g><g id="text_6"><defs><path id="DejaVuSans-Oblique-120" d="M 60.015625 54.6875 L 34.90625 27.875 L 50.296875 0 L 39.984375 0 L 28.421875 21.6875 L 8.296875 0 L -2.59375 0 L 24.3125 28.8125 L 10.015625 54.6875 L 20.3125 54.6875 L 30.8125 34.90625 L 49.125 54.6875 z"/></defs><g transform="translate(222.19 282.762136)scale(0.11 -0.11)"><use transform="translate(0 0.3125)" xlink:href="#DejaVuSans-Oblique-120"/><use transform="translate(59.179688 -16.09375)scale(0.7)" xlink:href="#DejaVuSans-49"/></g></g></g><g id="matplotlib.axis_2"><g id="ytick_1"><g id="line2d_11"><path fill="none" stroke="#000" stroke-linecap="square" stroke-opacity=".1" stroke-width=".5" d="M 26.984646 252.382297 L 429.165354 252.382297" clip-path="url(#p2aa4c57eaa)"/></g><g id="line2d_12"><defs><path id="m035ec126a1" stroke="#000" stroke-width=".8" d="M 0 0 L 3.5 0"/></defs><g><use x="26.985" y="252.382" stroke="#000" stroke-width=".8" xlink:href="#m035ec126a1"/></g></g><g id="text_7"><g transform="translate(18.394646 255.421672)scale(0.08 -0.08)"><use xlink:href="#DejaVuSans-48"/></g></g></g><g id="ytick_2"><g id="line2d_13"><path fill="none" stroke="#000" stroke-linecap="square" stroke-opacity=".1" stroke-width=".5" d="M 26.984646 200.526107 L 429.165354 200.526107" clip-path="url(#p2aa4c57eaa)"/></g><g id="line2d_14"><g><use x="26.985" y="200.526" stroke="#000" stroke-width=".8" xlink:href="#m035ec126a1"/></g></g><g id="text_8"><defs><path id="DejaVuSans-50" d="M 19.1875 8.296875 L 53.609375 8.296875 L 53.609375 0 L 7.328125 0 L 7.328125 8.296875 Q 12.9375 14.109375 22.625 23.890625 Q 32.328125 33.6875 34.8125 36.53125 Q 39.546875 41.84375 41.421875 45.53125 Q 43.3125 49.21875 43.3125 52.78125 Q 43.3125 58.59375 39.234375 62.25 Q 35.15625 65.921875 28.609375 65.921875 Q 23.96875 65.921875 18.8125 64.3125 Q 13.671875 62.703125 7.8125 59.421875 L 7.8125 69.390625 Q 13.765625 71.78125 18.9375 73 Q 24.125 74.21875 28.421875 74.21875 Q 39.75 74.21875 46.484375 68.546875 Q 53.21875 62.890625 53.21875 53.421875 Q 53.21875 48.921875 51.53125 44.890625 Q 49.859375 40.875 45.40625 35.40625 Q 44.1875 33.984375 37.640625 27.21875 Q 31.109375 20.453125 19.1875 8.296875 z"/></defs><g transform="translate(18.394646 203.565482)scale(0.08 -0.08)"><use xlink:href="#DejaVuSans-50"/></g></g></g><g id="ytick_3"><g id="line2d_15"><path fill="none" stroke="#000" stroke-linecap="square" stroke-opacity=".1" stroke-width=".5" d="M 26.984646 148.669918 L 429.165354 148.669918" clip-path="url(#p2aa4c57eaa)"/></g><g id="line2d_16"><g><use x="26.985" y="148.67" stroke="#000" stroke-width=".8" xlink:href="#m035ec126a1"/></g></g><g id="text_9"><defs><path id="DejaVuSans-52" d="M 37.796875 64.3125 L 12.890625 25.390625 L 37.796875 25.390625 z M 35.203125 72.90625 L 47.609375 72.90625 L 47.609375 25.390625 L 58.015625 25.390625 L 58.015625 17.1875 L 47.609375 17.1875 L 47.609375 0 L 37.796875 0 L 37.796875 17.1875 L 4.890625 17.1875 L 4.890625 26.703125 z"/></defs><g transform="translate(18.394646 151.709293)scale(0.08 -0.08)"><use xlink:href="#DejaVuSans-52"/></g></g></g><g id="ytick_4"><g id="line2d_17"><path fill="none" stroke="#000" stroke-linecap="square" stroke-opacity=".1" stroke-width=".5" d="M 26.984646 96.813728 L 429.165354 96.813728" clip-path="url(#p2aa4c57eaa)"/></g><g id="line2d_18"><g><use x="26.985" y="96.814" stroke="#000" stroke-width=".8" xlink:href="#m035ec126a1"/></g></g><g id="text_10"><defs><path id="DejaVuSans-54" d="M 33.015625 40.375 Q 26.375 40.375 22.484375 35.828125 Q 18.609375 31.296875 18.609375 23.390625 Q 18.609375 15.53125 22.484375 10.953125 Q 26.375 6.390625 33.015625 6.390625 Q 39.65625 6.390625 43.53125 10.953125 Q 47.40625 15.53125 47.40625 23.390625 Q 47.40625 31.296875 43.53125 35.828125 Q 39.65625 40.375 33.015625 40.375 z M 52.59375 71.296875 L 52.59375 62.3125 Q 48.875 64.0625 45.09375 64.984375 Q 41.3125 65.921875 37.59375 65.921875 Q 27.828125 65.921875 22.671875 59.328125 Q 17.53125 52.734375 16.796875 39.40625 Q 19.671875 43.65625 24.015625 45.921875 Q 28.375 48.1875 33.59375 48.1875 Q 44.578125 48.1875 50.953125 41.515625 Q 57.328125 34.859375 57.328125 23.390625 Q 57.328125 12.15625 50.6875 5.359375 Q 44.046875 -1.421875 33.015625 -1.421875 Q 20.359375 -1.421875 13.671875 8.265625 Q 6.984375 17.96875 6.984375 36.375 Q 6.984375 53.65625 15.1875 63.9375 Q 23.390625 74.21875 37.203125 74.21875 Q 40.921875 74.21875 44.703125 73.484375 Q 48.484375 72.75 52.59375 71.296875 z"/></defs><g transform="translate(18.394646 99.853103)scale(0.08 -0.08)"><use xlink:href="#DejaVuSans-54"/></g></g></g><g id="ytick_5"><g id="line2d_19"><path fill="none" stroke="#000" stroke-linecap="square" stroke-opacity=".1" stroke-width=".5" d="M 26.984646 44.957539 L 429.165354 44.957539" clip-path="url(#p2aa4c57eaa)"/></g><g id="line2d_20"><g><use x="26.985" y="44.958" stroke="#000" stroke-width=".8" xlink:href="#m035ec126a1"/></g></g><g id="text_11"><defs><path id="DejaVuSans-56" d="M 31.78125 34.625 Q 24.75 34.625 20.71875 30.859375 Q 16.703125 27.09375 16.703125 20.515625 Q 16.703125 13.921875 20.71875 10.15625 Q 24.75 6.390625 31.78125 6.390625 Q 38.8125 6.390625 42.859375 10.171875 Q 46.921875 13.96875 46.921875 20.515625 Q 46.921875 27.09375 42.890625 30.859375 Q 38.875 34.625 31.78125 34.625 z M 21.921875 38.8125 Q 15.578125 40.375 12.03125 44.71875 Q 8.5 49.078125 8.5 55.328125 Q 8.5 64.0625 14.71875 69.140625 Q 20.953125 74.21875 31.78125 74.21875 Q 42.671875 74.21875 48.875 69.140625 Q 55.078125 64.0625 55.078125 55.328125 Q 55.078125 49.078125 51.53125 44.71875 Q 48 40.375 41.703125 38.8125 Q 48.828125 37.15625 52.796875 32.3125 Q 56.78125 27.484375 56.78125 20.515625 Q 56.78125 9.90625 50.3125 4.234375 Q 43.84375 -1.421875 31.78125 -1.421875 Q 19.734375 -1.421875 13.25 4.234375 Q 6.78125 9.90625 6.78125 20.515625 Q 6.78125 27.484375 10.78125 32.3125 Q 14.796875 37.15625 21.921875 38.8125 z M 18.3125 54.390625 Q 18.3125 48.734375 21.84375 45.5625 Q 25.390625 42.390625 31.78125 42.390625 Q 38.140625 42.390625 41.71875 45.5625 Q 45.3125 48.734375 45.3125 54.390625 Q 45.3125 60.0625 41.71875 63.234375 Q 38.140625 66.40625 31.78125 66.40625 Q 25.390625 66.40625 21.84375 63.234375 Q 18.3125 60.0625 18.3125 54.390625 z"/></defs><g transform="translate(18.394646 47.996914)scale(0.08 -0.08)"><use xlink:href="#DejaVuSans-56"/></g></g></g><g id="text_12"><defs><path id="DejaVuSans-Oblique-121" d="M 24.8125 -5.078125 Q 18.5625 -15.578125 14.625 -18.1875 Q 10.6875 -20.796875 4.59375 -20.796875 L -2.484375 -20.796875 L -0.984375 -13.28125 L 4.203125 -13.28125 Q 7.953125 -13.28125 10.59375 -11.234375 Q 13.234375 -9.1875 16.5 -3.21875 L 19.28125 2 L 7.171875 54.6875 L 16.703125 54.6875 L 25.78125 12.796875 L 50.875 54.6875 L 60.296875 54.6875 z"/></defs><g transform="translate(12.084646 142.698)rotate(-90)scale(0.11 -0.11)"><use transform="translate(0 0.3125)" xlink:href="#DejaVuSans-Oblique-121"/></g></g></g><g id="line2d_21"><path fill="none" stroke="#009afa" stroke-linecap="round" d="M 38.367119 85.399893 L 41.971568 131.369298 L 51.077547 251.084727 L 51.267254 251.274006 L 54.681996 209.501598 L 57.337907 179.548558 L 59.804109 154.23634 L 61.890896 134.982288 L 63.787975 119.371608 L 65.495346 106.966551 L 67.202717 96.193763 L 68.72038 88.033676 L 70.048335 82.010733 L 71.37629 77.044399 L 72.514537 73.634256 L 73.463077 71.390704 L 74.411616 69.690155 L 75.170448 68.719171 L 75.929279 68.09241 L 76.498403 67.846799 L 77.067526 67.792228 L 77.63665 67.927287 L 78.205774 68.25039 L 78.964605 68.970646 L 79.723437 70.017422 L 80.671976 71.777158 L 81.620516 74.027797 L 82.758763 77.35903 L 83.89701 81.35567 L 85.224965 86.824805 L 86.742628 94.083535 L 88.449999 103.448033 L 90.347078 115.209737 L 92.433865 129.606589 L 94.900067 148.28192 L 97.935393 173.168144 L 102.108967 209.463665 L 106.851664 251.286868 L 107.041372 251.830372 L 110.835529 219.854096 L 113.681147 197.584602 L 116.14735 179.890654 L 118.423845 165.128482 L 120.510631 153.079109 L 122.40771 143.454465 L 124.115081 135.93267 L 125.632744 130.185047 L 127.150407 125.339927 L 128.478362 121.849739 L 129.61661 119.417426 L 130.754857 117.500972 L 131.703396 116.296151 L 132.651936 115.445125 L 133.410767 115.016615 L 134.169599 114.809895 L 134.92843 114.822254 L 135.687262 115.050598 L 136.446093 115.491463 L 137.394633 116.335539 L 138.343172 117.497438 L 139.481419 119.298441 L 140.619667 121.52692 L 141.947622 124.642168 L 143.465285 128.842677 L 145.172656 134.322747 L 147.069735 141.256204 L 149.156521 149.777116 L 151.622724 160.841723 L 154.65805 175.552444 L 159.590455 200.76487 L 164.902275 227.577116 L 167.937602 241.828546 L 170.214096 251.707315 L 170.403804 252.270529 L 172.680299 243.313475 L 174.767085 235.949235 L 176.664164 230.015643 L 178.371535 225.327743 L 180.078906 221.277514 L 181.596569 218.221422 L 183.114232 215.679828 L 184.442187 213.875913 L 185.770142 212.458971 L 186.90839 211.546755 L 188.046637 210.906974 L 189.184884 210.531944 L 190.323132 210.412682 L 191.461379 210.538974 L 192.599626 210.899452 L 193.737873 211.481666 L 195.065829 212.423178 L 196.583492 213.816853 L 198.101155 215.514281 L 199.998234 218.004141 L 202.08502 221.126651 L 204.740931 225.514017 L 214.416033 241.939576 L 216.692527 245.15392 L 218.589606 247.463406 L 220.296977 249.207924 L 221.81464 250.465324 L 223.332303 251.426821 L 224.660258 252.013461 L 225.988213 252.354408 L 226.557337 252.340635 L 227.885292 252.358961 L 228.454416 252.32007 L 229.782371 251.93921 L 231.110326 251.306516 L 232.438281 250.426415 L 233.955944 249.126553 L 235.473607 247.526652 L 237.180978 245.390682 L 239.078057 242.637121 L 241.164844 239.205363 L 243.631046 234.711274 L 247.045788 227.971748 L 253.875272 214.37441 L 256.341474 210.012179 L 258.428261 206.766539 L 260.135632 204.49292 L 261.653295 202.807849 L 262.98125 201.622121 L 264.309205 200.729174 L 265.447453 200.212365 L 266.5857 199.937445 L 267.723947 199.915021 L 268.862195 200.154495 L 270.000442 200.663991 L 271.138689 201.450295 L 272.276936 202.518795 L 273.415184 203.873432 L 274.743139 205.81867 L 276.071094 208.157898 L 277.588757 211.311498 L 279.10642 214.970298 L 280.813791 219.674916 L 282.71087 225.603145 L 284.797657 232.922535 L 287.074151 241.771566 L 289.540354 252.235166 L 289.919769 250.849775 L 293.144803 235.980697 L 298.646332 209.297823 L 303.199321 187.690894 L 306.044939 175.23129 L 308.321434 166.189237 L 310.408221 158.819734 L 312.115591 153.55636 L 313.633255 149.526916 L 314.96121 146.545833 L 316.289165 144.107788 L 317.427412 142.473452 L 318.375952 141.446195 L 319.324491 140.733236 L 320.083323 140.394948 L 320.842154 140.267313 L 321.600986 140.353976 L 322.359817 140.658218 L 323.118649 141.182943 L 324.067188 142.1527 L 325.015727 143.474909 L 325.964267 145.152625 L 327.102514 147.63795 L 328.240761 150.639642 L 329.568717 154.793282 L 331.08638 160.393381 L 332.604043 166.889959 L 334.311414 175.243799 L 336.208492 185.775417 L 338.295279 198.795255 L 340.571774 214.576092 L 343.037976 233.317304 L 345.314471 251.901221 L 345.504179 251.266938 L 348.91892 221.545619 L 356.12782 156.116531 L 360.111685 121.312182 L 362.957304 98.307675 L 365.423506 80.175914 L 367.510293 66.448031 L 369.407372 55.450674 L 371.114743 46.892296 L 372.632406 40.436657 L 373.960361 35.731298 L 375.098608 32.430625 L 376.236855 29.829858 L 377.185395 28.211681 L 377.944226 27.284001 L 378.703058 26.687477 L 379.272182 26.459892 L 379.841305 26.422426 L 380.410429 26.576432 L 380.979552 26.923083 L 381.738384 27.686642 L 382.497215 28.796269 L 383.445755 30.671824 L 384.394294 33.091192 L 385.532542 36.711725 L 386.670789 41.111472 L 387.998744 47.220577 L 389.326699 54.365796 L 390.844362 63.772844 L 392.551733 75.888443 L 394.448812 91.167052 L 396.535599 110.040519 L 398.812093 132.877987 L 401.278296 159.935283 L 404.123914 193.607174 L 407.918072 241.369051 L 408.676903 251.167423 L 408.866611 251.139908 L 417.403466 141.856602 L 417.782881 137.256083 L 417.782881 137.256083" clip-path="url(#p2aa4c57eaa)"/></g><g id="patch_3"><path fill="none" stroke="#000" stroke-linecap="square" stroke-linejoin="miter" d="M 26.984646 259.161354 L 26.984646 19.634646"/></g><g id="patch_4"><path fill="none" stroke="#000" stroke-linecap="square" stroke-linejoin="miter" stroke-width=".8" d="M 429.165354 259.161354 L 429.165354 19.634646"/></g><g id="patch_5"><path fill="none" stroke="#000" stroke-linecap="square" stroke-linejoin="miter" d="M 26.984646 259.161354 L 429.165354 259.161354"/></g><g id="patch_6"><path fill="none" stroke="#000" stroke-linecap="square" stroke-linejoin="miter" stroke-width=".8" d="M 26.984646 19.634646 L 429.165354 19.634646"/></g><g id="text_13"><defs><path id="DejaVuSans-65" d="M 34.1875 63.1875 L 20.796875 26.90625 L 47.609375 26.90625 z M 28.609375 72.90625 L 39.796875 72.90625 L 67.578125 0 L 57.328125 0 L 50.6875 18.703125 L 17.828125 18.703125 L 11.1875 0 L 0.78125 0 z"/><path id="DejaVuSans-108" d="M 9.421875 75.984375 L 18.40625 75.984375 L 18.40625 0 L 9.421875 0 z"/><path id="DejaVuSans-112" d="M 18.109375 8.203125 L 18.109375 -20.796875 L 9.078125 -20.796875 L 9.078125 54.6875 L 18.109375 54.6875 L 18.109375 46.390625 Q 20.953125 51.265625 25.265625 53.625 Q 29.59375 56 35.59375 56 Q 45.5625 56 51.78125 48.09375 Q 58.015625 40.1875 58.015625 27.296875 Q 58.015625 14.40625 51.78125 6.484375 Q 45.5625 -1.421875 35.59375 -1.421875 Q 29.59375 -1.421875 25.265625 0.953125 Q 20.953125 3.328125 18.109375 8.203125 z M 48.6875 27.296875 Q 48.6875 37.203125 44.609375 42.84375 Q 40.53125 48.484375 33.40625 48.484375 Q 26.265625 48.484375 22.1875 42.84375 Q 18.109375 37.203125 18.109375 27.296875 Q 18.109375 17.390625 22.1875 11.75 Q 26.265625 6.109375 33.40625 6.109375 Q 40.53125 6.109375 44.609375 11.75 Q 48.6875 17.390625 48.6875 27.296875 z"/><path id="DejaVuSans-105" d="M 9.421875 54.6875 L 18.40625 54.6875 L 18.40625 0 L 9.421875 0 z M 9.421875 75.984375 L 18.40625 75.984375 L 18.40625 64.59375 L 9.421875 64.59375 z"/><path id="DejaVuSans-110" d="M 54.890625 33.015625 L 54.890625 0 L 45.90625 0 L 45.90625 32.71875 Q 45.90625 40.484375 42.875 44.328125 Q 39.84375 48.1875 33.796875 48.1875 Q 26.515625 48.1875 22.3125 43.546875 Q 18.109375 38.921875 18.109375 30.90625 L 18.109375 0 L 9.078125 0 L 9.078125 54.6875 L 18.109375 54.6875 L 18.109375 46.1875 Q 21.34375 51.125 25.703125 53.5625 Q 30.078125 56 35.796875 56 Q 45.21875 56 50.046875 50.171875 Q 54.890625 44.34375 54.890625 33.015625 z"/><path id="DejaVuSans-101" d="M 56.203125 29.59375 L 56.203125 25.203125 L 14.890625 25.203125 Q 15.484375 15.921875 20.484375 11.0625 Q 25.484375 6.203125 34.421875 6.203125 Q 39.59375 6.203125 44.453125 7.46875 Q 49.3125 8.734375 54.109375 11.28125 L 54.109375 2.78125 Q 49.265625 0.734375 44.1875 -0.34375 Q 39.109375 -1.421875 33.890625 -1.421875 Q 20.796875 -1.421875 13.15625 6.1875 Q 5.515625 13.8125 5.515625 26.8125 Q 5.515625 40.234375 12.765625 48.109375 Q 20.015625 56 32.328125 56 Q 43.359375 56 49.78125 48.890625 Q 56.203125 41.796875 56.203125 29.59375 z M 47.21875 32.234375 Q 47.125 39.59375 43.09375 43.984375 Q 39.0625 48.390625 32.421875 48.390625 Q 24.90625 48.390625 20.390625 44.140625 Q 15.875 39.890625 15.1875 32.171875 z"/><path id="DejaVuSans-32"/><path id="DejaVuSans-70" d="M 9.8125 72.90625 L 51.703125 72.90625 L 51.703125 64.59375 L 19.671875 64.59375 L 19.671875 43.109375 L 48.578125 43.109375 L 48.578125 34.8125 L 19.671875 34.8125 L 19.671875 0 L 9.8125 0 z"/><path id="DejaVuSans-117" d="M 8.5 21.578125 L 8.5 54.6875 L 17.484375 54.6875 L 17.484375 21.921875 Q 17.484375 14.15625 20.5 10.265625 Q 23.53125 6.390625 29.59375 6.390625 Q 36.859375 6.390625 41.078125 11.03125 Q 45.3125 15.671875 45.3125 23.6875 L 45.3125 54.6875 L 54.296875 54.6875 L 54.296875 0 L 45.3125 0 L 45.3125 8.40625 Q 42.046875 3.421875 37.71875 1 Q 33.40625 -1.421875 27.6875 -1.421875 Q 18.265625 -1.421875 13.375 4.4375 Q 8.5 10.296875 8.5 21.578125 z M 31.109375 56 z"/><path id="DejaVuSans-99" d="M 48.78125 52.59375 L 48.78125 44.1875 Q 44.96875 46.296875 41.140625 47.34375 Q 37.3125 48.390625 33.40625 48.390625 Q 24.65625 48.390625 19.8125 42.84375 Q 14.984375 37.3125 14.984375 27.296875 Q 14.984375 17.28125 19.8125 11.734375 Q 24.65625 6.203125 33.40625 6.203125 Q 37.3125 6.203125 41.140625 7.25 Q 44.96875 8.296875 48.78125 10.40625 L 48.78125 2.09375 Q 45.015625 0.34375 40.984375 -0.53125 Q 36.96875 -1.421875 32.421875 -1.421875 Q 20.0625 -1.421875 12.78125 6.34375 Q 5.515625 14.109375 5.515625 27.296875 Q 5.515625 40.671875 12.859375 48.328125 Q 20.21875 56 33.015625 56 Q 37.15625 56 41.109375 55.140625 Q 45.0625 54.296875 48.78125 52.59375 z"/><path id="DejaVuSans-116" d="M 18.3125 70.21875 L 18.3125 54.6875 L 36.8125 54.6875 L 36.8125 47.703125 L 18.3125 47.703125 L 18.3125 18.015625 Q 18.3125 11.328125 20.140625 9.421875 Q 21.96875 7.515625 27.59375 7.515625 L 36.8125 7.515625 L 36.8125 0 L 27.59375 0 Q 17.1875 0 13.234375 3.875 Q 9.28125 7.765625 9.28125 18.015625 L 9.28125 47.703125 L 2.6875 47.703125 L 2.6875 54.6875 L 9.28125 54.6875 L 9.28125 70.21875 z"/><path id="DejaVuSans-111" d="M 30.609375 48.390625 Q 23.390625 48.390625 19.1875 42.75 Q 14.984375 37.109375 14.984375 27.296875 Q 14.984375 17.484375 19.15625 11.84375 Q 23.34375 6.203125 30.609375 6.203125 Q 37.796875 6.203125 41.984375 11.859375 Q 46.1875 17.53125 46.1875 27.296875 Q 46.1875 37.015625 41.984375 42.703125 Q 37.796875 48.390625 30.609375 48.390625 z M 30.609375 56 Q 42.328125 56 49.015625 48.375 Q 55.71875 40.765625 55.71875 27.296875 Q 55.71875 13.875 49.015625 6.21875 Q 42.328125 -1.421875 30.609375 -1.421875 Q 18.84375 -1.421875 12.171875 6.21875 Q 5.515625 13.875 5.515625 27.296875 Q 5.515625 40.765625 12.171875 48.375 Q 18.84375 56 30.609375 56 z"/></defs><g transform="translate(166.855625 13.634646)scale(0.14 -0.14)"><use xlink:href="#DejaVuSans-65"/><use x="68.408" xlink:href="#DejaVuSans-108"/><use x="96.191" xlink:href="#DejaVuSans-112"/><use x="159.668" xlink:href="#DejaVuSans-105"/><use x="187.451" xlink:href="#DejaVuSans-110"/><use x="250.83" xlink:href="#DejaVuSans-101"/><use x="312.354" xlink:href="#DejaVuSans-45"/><use x="348.438" xlink:href="#DejaVuSans-49"/><use x="412.061" xlink:href="#DejaVuSans-32"/><use x="443.848" xlink:href="#DejaVuSans-70"/><use x="501.289" xlink:href="#DejaVuSans-117"/><use x="564.668" xlink:href="#DejaVuSans-110"/><use x="628.047" xlink:href="#DejaVuSans-99"/><use x="683.027" xlink:href="#DejaVuSans-116"/><use x="722.236" xlink:href="#DejaVuSans-105"/><use x="750.02" xlink:href="#DejaVuSans-111"/><use x="811.201" xlink:href="#DejaVuSans-110"/></g></g></g></g><defs><clipPath id="p2aa4c57eaa"><rect width="402.181" height="239.527" x="26.985" y="19.635"/></clipPath></defs></svg>