<svg xmlns="http://www.w3.org/2000/svg" xmlns:xlink="http://www.w3.org/1999/xlink" width="576" height="384" version="1.1" viewBox="0 0 432 288"><defs><style type="text/css">*{stroke-linecap:butt;stroke-linejoin:round}</style></defs><g id="figure_1"><g id="patch_1"><path fill="#fff" d="M 0 288 L 432 288 L 432 0 L 0 0 z"/></g><g id="axes_1"><g id="patch_2"><path fill="#fff" d="M 32.114646 259.161354 L 429.165354 259.161354 L 429.165354 19.634646 L 32.114646 19.634646 z"/></g><g id="matplotlib.axis_1"><g id="xtick_1"><g id="line2d_1"><path fill="none" stroke="#000" stroke-linecap="square" stroke-opacity=".1" stroke-width=".5" d="M 43.35193 259.161354 L 43.35193 19.634646" clip-path="url(#p4bd97fe445)"/></g><g id="line2d_2"><defs><path id="md4f09edc77" stroke="#000" stroke-width=".8" d="M 0 0 L 0 -3.5"/></defs><g><use x="43.352" y="259.161" stroke="#000" stroke-width=".8" xlink:href="#md4f09edc77"/></g></g><g id="text_1"><defs><path id="DejaVuSans-45" d="M 4.890625 31.390625 L 31.203125 31.390625 L 31.203125 23.390625 L 4.890625 23.390625 z"/><path id="DejaVuSans-49" d="M 12.40625 8.296875 L 28.515625 8.296875 L 28.515625 63.921875 L 10.984375 60.40625 L 10.984375 69.390625 L 28.421875 72.90625 L 38.28125 72.90625 L 38.28125 8.296875 L 54.390625 8.296875 L 54.390625 0 L 12.40625 0 z"/><path id="DejaVuSans-48" d="M 31.78125 66.40625 Q 24.171875 66.40625 20.328125 58.90625 Q 16.5 51.421875 16.5 36.375 Q 16.5 21.390625 20.328125 13.890625 Q 24.171875 6.390625 31.78125 6.390625 Q 39.453125 6.390625 43.28125 13.890625 Q 47.125 21.390625 47.125 36.375 Q 47.125 51.421875 43.28125 58.90625 Q 39.453125 66.40625 31.78125 66.40625 z M 31.78125 74.21875 Q 44.046875 74.21875 50.515625 64.515625 Q 56.984375 54.828125 56.984375 36.375 Q 56.984375 17.96875 50.515625 8.265625 Q 44.046875 -1.421875 31.78125 -1.421875 Q 19.53125 -1.421875 13.0625 8.265625 Q 6.59375 17.96875 6.59375 36.375 Q 6.59375 54.828125 13.0625 64.515625 Q 19.53125 74.21875 31.78125 74.21875 z"/></defs><g transform="translate(36.818805 268.740104)scale(0.08 -0.08)"><use xlink:href="#DejaVuSans-45"/><use x="36.084" xlink:href="#DejaVuSans-49"/><use x="99.707" xlink:href="#DejaVuSans-48"/></g></g></g><g id="xtick_2"><g id="line2d_3"><path fill="none" stroke="#000" stroke-linecap="square" stroke-opacity=".1" stroke-width=".5" d="M 136.995965 259.161354 L 136.995965 19.634646" clip-path="url(#p4bd97fe445)"/></g><g id="line2d_4"><g><use x="136.996" y="259.161" stroke="#000" stroke-width=".8" xlink:href="#md4f09edc77"/></g></g><g id="text_2"><defs><path id="DejaVuSans-53" d="M 10.796875 72.90625 L 49.515625 72.90625 L 49.515625 64.59375 L 19.828125 64.59375 L 19.828125 46.734375 Q 21.96875 47.46875 24.109375 47.828125 Q 26.265625 48.1875 28.421875 48.1875 Q 40.625 48.1875 47.75 41.5 Q 54.890625 34.8125 54.890625 23.390625 Q 54.890625 11.625 47.5625 5.09375 Q 40.234375 -1.421875 26.90625 -1.421875 Q 22.3125 -1.421875 17.546875 -0.640625 Q 12.796875 0.140625 7.71875 1.703125 L 7.71875 11.625 Q 12.109375 9.234375 16.796875 8.0625 Q 21.484375 6.890625 26.703125 6.890625 Q 35.15625 6.890625 40.078125 11.328125 Q 45.015625 15.765625 45.015625 23.390625 Q 45.015625 31 40.078125 35.4375 Q 35.15625 39.890625 26.703125 39.890625 Q 22.75 39.890625 18.8125 39.015625 Q 14.890625 38.140625 10.796875 36.28125 z"/></defs><g transform="translate(133.00784 268.740104)scale(0.08 -0.08)"><use xlink:href="#DejaVuSans-45"/><use x="36.084" xlink:href="#DejaVuSans-53"/></g></g></g><g id="xtick_3"><g id="line2d_5"><path fill="none" stroke="#000" stroke-linecap="square" stroke-opacity=".1" stroke-width=".5" d="M 230.64 259.161354 L 230.64 19.634646" clip-path="url(#p4bd97fe445)"/></g><g id="line2d_6"><g><use x="230.64" y="259.161" stroke="#000" stroke-width=".8" xlink:href="#md4f09edc77"/></g></g><g id="text_3"><g transform="translate(228.095 268.740104)scale(0.08 -0.08)"><use xlink:href="#DejaVuSans-48"/></g></g></g><g id="xtick_4"><g id="line2d_7"><path fill="none" stroke="#000" stroke-linecap="square" stroke-opacity=".1" stroke-width=".5" d="M 324.284035 259.161354 L 324.284035 19.634646" clip-path="url(#p4bd97fe445)"/></g><g id="line2d_8"><g><use x="324.284" y="259.161" stroke="#000" stroke-width=".8" xlink:href="#md4f09edc77"/></g></g><g id="text_4"><g transform="translate(321.739035 268.740104)scale(0.08 -0.08)"><use xlink:href="#DejaVuSans-53"/></g></g></g><g id="xtick_5"><g id="line2d_9"><path fill="none" stroke="#000" stroke-linecap="square" stroke-opacity=".1" stroke-width=".5" d="M 417.92807 259.161354 L 417.92807 19.634646" clip-path="url(#p4bd97fe445)"/></g><g id="line2d_10"><g><use x="417.928" y="259.161" stroke="#000" stroke-width=".8" xlink:href="#md4f09edc77"/></g></g><g id="text_5"><g transform="translate(412.83807 268.740104)scale(0.08 -0.08)"><use xlink:href="#DejaVuSans-49"/><use x="63.623" xlink:href="#DejaVuSans-48"/></g></g></g><g id="text_6"><defs><path id="DejaVuSans-Oblique-120" d="M 60.015625 54.6875 L 34.90625 27.875 L 50.296875 0 L 39.984375 0 L 28.421875 21.6875 L 8.296875 0 L -2.59375 0 L 24.3125 28.8125 L 10.015625 54.6875 L 20.3125 54.6875 L 30.8125 34.90625 L 49.125 54.6875 z"/></defs><g transform="translate(224.755 282.762136)scale(0.11 -0.11)"><use transform="translate(0 0.3125)" xlink:href="#DejaVuSans-Oblique-120"/><use transform="translate(59.179688 -16.09375)scale(0.7)" xlink:href="#DejaVuSans-49"/></g></g></g><g id="matplotlib.axis_2"><g id="ytick_1"><g id="line2d_11"><path fill="none" stroke="#000" stroke-linecap="square" stroke-opacity=".1" stroke-width=".5" d="M 32.114646 252.382297 L 429.165354 252.382297" clip-path="url(#p4bd97fe445)"/></g><g id="line2d_12"><defs><path id="mf82a97db50" stroke="#000" stroke-width=".8" d="M 0 0 L 3.5 0"/></defs><g><use x="32.115" y="252.382" stroke="#000" stroke-width=".8" xlink:href="#mf82a97db50"/></g></g><g id="text_7"><g transform="translate(23.524646 255.421672)scale(0.08 -0.08)"><use xlink:href="#DejaVuSans-48"/></g></g></g><g id="ytick_2"><g id="line2d_13"><path fill="none" stroke="#000" stroke-linecap="square" stroke-opacity=".1" stroke-width=".5" d="M 32.114646 194.056154 L 429.165354 194.056154" clip-path="url(#p4bd97fe445)"/></g><g id="line2d_14"><g><use x="32.115" y="194.056" stroke="#000" stroke-width=".8" xlink:href="#mf82a97db50"/></g></g><g id="text_8"><g transform="translate(23.524646 197.095529)scale(0.08 -0.08)"><use xlink:href="#DejaVuSans-53"/></g></g></g><g id="ytick_3"><g id="line2d_15"><path fill="none" stroke="#000" stroke-linecap="square" stroke-opacity=".1" stroke-width=".5" d="M 32.114646 135.730011 L 429.165354 135.730011" clip-path="url(#p4bd97fe445)"/></g><g id="line2d_16"><g><use x="32.115" y="135.73" stroke="#000" stroke-width=".8" xlink:href="#mf82a97db50"/></g></g><g id="text_9"><g transform="translate(18.434646 138.769386)scale(0.08 -0.08)"><use xlink:href="#DejaVuSans-49"/><use x="63.623" xlink:href="#DejaVuSans-48"/></g></g></g><g id="ytick_4"><g id="line2d_17"><path fill="none" stroke="#000" stroke-linecap="square" stroke-opacity=".1" stroke-width=".5" d="M 32.114646 77.403869 L 429.165354 77.403869" clip-path="url(#p4bd97fe445)"/></g><g id="line2d_18"><g><use x="32.115" y="77.404" stroke="#000" stroke-width=".8" xlink:href="#mf82a97db50"/></g></g><g id="text_10"><g transform="translate(18.434646 80.443244)scale(0.08 -0.08)"><use xlink:href="#DejaVuSans-49"/><use x="63.623" xlink:href="#DejaVuSans-53"/></g></g></g><g id="text_11"><defs><path id="DejaVuSans-Oblique-121" d="M 24.8125 -5.078125 Q 18.5625 -15.578125 14.625 -18.1875 Q 10.6875 -20.796875 4.59375 -20.796875 L -2.484375 -20.796875 L -0.984375 -13.28125 L 4.203125 -13.28125 Q 7.953125 -13.28125 10.59375 -11.234375 Q 13.234375 -9.1875 16.5 -3.21875 L 19.28125 2 L 7.171875 54.6875 L 16.703125 54.6875 L 25.78125 12.796875 L 50.875 54.6875 L 60.296875 54.6875 z"/></defs><g transform="translate(12.124646 142.698)rotate(-90)scale(0.11 -0.11)"><use transform="translate(0 0.3125)" xlink:href="#DejaVuSans-Oblique-121"/></g></g></g><g id="line2d_19"><path fill="none" stroke="#009afa" stroke-linecap="round" d="M 43.35193 50.652066 L 43.539218 50.652769 L 43.913794 50.285367 L 44.28837 49.454794 L 44.850234 47.471958 L 45.786675 42.905059 L 47.472267 34.432257 L 48.408708 30.985676 L 49.15786 29.034956 L 49.907012 27.712777 L 50.656165 26.902464 L 51.218029 26.565953 L 51.779893 26.422837 L 52.529045 26.493544 L 53.278198 26.841477 L 54.02735 27.475246 L 54.776502 28.43797 L 55.525654 29.806794 L 56.274807 31.687618 L 57.023959 34.197152 L 57.773111 37.422369 L 58.709552 42.426619 L 60.957008 55.032341 L 61.518873 56.8553 L 61.893449 57.50315 L 62.268025 57.65741 L 62.642601 57.318083 L 63.017177 56.515697 L 63.579041 54.575354 L 64.515482 50.079846 L 66.201074 41.737359 L 67.137515 38.364195 L 67.886667 36.47274 L 68.635819 35.210302 L 69.384972 34.46021 L 69.946836 34.169182 L 70.5087 34.071822 L 71.257852 34.203966 L 72.007005 34.61383 L 72.756157 35.310027 L 73.505309 36.335681 L 74.254461 37.76794 L 75.003614 39.712708 L 75.752766 42.286701 L 76.689206 46.513395 L 77.812935 52.92253 L 79.498527 62.647539 L 80.060392 64.825061 L 80.434968 65.744015 L 80.809544 66.181107 L 80.996832 66.212898 L 81.371408 65.907861 L 81.745984 65.139903 L 82.307848 63.251461 L 83.244289 58.843149 L 84.929881 50.659831 L 85.866322 47.376338 L 86.615474 45.55727 L 87.364626 44.3678 L 87.926491 43.818512 L 88.488355 43.511239 L 89.050219 43.408268 L 89.799371 43.543191 L 90.548524 43.95965 L 91.297676 44.657672 L 92.046828 45.671735 L 92.79598 47.070688 L 93.545133 48.954271 L 94.294285 51.439255 L 95.043437 54.625409 L 95.979878 59.611852 L 98.601911 74.52287 L 99.163775 76.131201 L 99.538351 76.609925 L 99.725639 76.662595 L 99.912927 76.59146 L 100.287503 76.091306 L 100.662079 75.154113 L 101.223944 73.08365 L 102.347672 67.650044 L 103.658688 61.557762 L 104.407841 58.926655 L 105.156993 57.02238 L 105.906145 55.775137 L 106.46801 55.202402 L 107.029874 54.886709 L 107.591738 54.787192 L 108.153602 54.872986 L 108.902754 55.242658 L 109.651907 55.890324 L 110.401059 56.83321 L 111.150211 58.123089 L 111.899364 59.845138 L 112.648516 62.110369 L 113.397668 65.032959 L 114.334108 69.706953 L 115.645125 77.764032 L 116.956141 85.492073 L 117.518006 87.807073 L 117.892582 88.818139 L 118.267158 89.347712 L 118.454446 89.425884 L 118.641734 89.380301 L 119.01631 88.931405 L 119.390886 88.045674 L 119.952751 86.052794 L 120.889191 81.699666 L 122.200207 75.611367 L 123.136648 72.344331 L 123.8858 70.547828 L 124.634952 69.409223 L 125.196817 68.918538 L 125.758681 68.68539 L 126.320545 68.668913 L 126.882409 68.838249 L 127.631561 69.32009 L 128.380714 70.080827 L 129.129866 71.137693 L 129.879018 72.542467 L 130.628171 74.380333 L 131.377323 76.762312 L 132.126475 79.802588 L 133.062915 84.625019 L 134.373932 92.89242 L 135.684948 100.833747 L 136.246813 103.241075 L 136.808677 104.671687 L 137.183253 105.014999 L 137.370541 105.000626 L 137.745117 104.614337 L 138.119693 103.791464 L 138.681558 101.893342 L 139.617998 97.699413 L 140.929014 91.836687 L 141.678167 89.262024 L 142.427319 87.418318 L 142.989183 86.489311 L 143.551047 85.900223 L 144.112912 85.600878 L 144.674776 85.545053 L 145.23664 85.695043 L 145.985792 86.169617 L 146.734945 86.928456 L 147.484097 87.971607 L 148.233249 89.333571 L 148.982401 91.08322 L 149.731554 93.320315 L 150.480706 96.161651 L 151.417146 100.708716 L 152.540875 107.579489 L 154.413755 119.572111 L 154.97562 122.092207 L 155.537484 123.636266 L 155.91206 124.055588 L 156.099348 124.079334 L 156.473924 123.769513 L 156.8485 123.023414 L 157.410365 121.241031 L 158.346805 117.24155 L 159.657821 111.654337 L 160.406974 109.238852 L 161.156126 107.555601 L 161.71799 106.747781 L 162.279854 106.280609 L 162.841719 106.103914 L 163.403583 106.171477 L 163.965447 106.445597 L 164.714599 107.086842 L 165.463752 108.01369 L 166.400192 109.577244 L 167.336632 111.665518 L 168.273073 114.436392 L 169.209513 118.107389 L 170.145953 122.875013 L 171.269682 130.013383 L 173.142562 142.459201 L 173.891715 145.795333 L 174.266291 146.799655 L 174.640867 147.311816 L 174.828155 147.382121 L 175.015443 147.331825 L 175.390019 146.890215 L 175.764595 146.044445 L 176.32646 144.191792 L 179.135781 133.638604 L 179.884933 132.151333 L 180.446797 131.491532 L 181.008661 131.173269 L 181.570526 131.146379 L 182.13239 131.364648 L 182.881542 131.973369 L 183.630694 132.891867 L 184.567135 134.439674 L 185.503575 136.459153 L 186.440015 139.059745 L 187.376456 142.428138 L 188.312896 146.787969 L 189.249337 152.283614 L 190.560353 161.504897 L 191.871369 170.413555 L 192.620522 173.974218 L 193.182386 175.466457 L 193.556962 175.84421 L 193.74425 175.850894 L 194.118826 175.523589 L 194.493402 174.792582 L 195.055267 173.112936 L 197.864588 163.440528 L 198.426452 162.436668 L 198.988316 161.832767 L 199.55018 161.587739 L 200.112045 161.651788 L 200.673909 161.976711 L 201.423061 162.746572 L 202.172213 163.84003 L 203.108654 165.612847 L 204.045094 167.848687 L 204.981534 170.640287 L 205.917975 174.160517 L 206.854415 178.631888 L 207.790855 184.228875 L 209.101872 193.73405 L 210.600176 204.55708 L 211.349329 208.391987 L 211.911193 210.091353 L 212.285769 210.607883 L 212.660345 210.644868 L 213.034921 210.246967 L 213.409498 209.482791 L 214.15865 207.203092 L 215.844242 201.534243 L 216.593395 199.840681 L 217.155259 199.055879 L 217.717123 198.672353 L 218.278987 198.649027 L 218.840852 198.936112 L 219.402716 199.485414 L 220.151868 200.556547 L 221.088308 202.349143 L 222.024749 204.595008 L 223.148477 207.930085 L 224.084918 211.380779 L 225.021358 215.650558 L 225.957798 220.959748 L 227.081527 228.830188 L 229.70356 248.546277 L 230.265424 251.201888 L 230.64 252.382297 L 231.014576 251.201888 L 231.57644 248.546277 L 232.325593 243.649153 L 234.198473 228.830188 L 235.322202 220.959748 L 236.44593 214.72002 L 237.569659 209.91469 L 238.693387 206.167165 L 239.817115 203.193555 L 240.940844 200.877204 L 241.877284 199.485414 L 242.626436 198.809014 L 243.188301 198.619809 L 243.562877 198.672353 L 243.937453 198.885151 L 244.499317 199.532753 L 245.061181 200.596669 L 245.810334 202.636679 L 248.245079 210.246967 L 248.619655 210.644868 L 248.806943 210.684164 L 248.994231 210.607883 L 249.368807 210.091353 L 249.743383 209.07977 L 250.305247 206.676135 L 251.0544 202.112636 L 252.739992 189.48472 L 253.863721 181.851068 L 254.800161 176.715145 L 255.736601 172.651149 L 256.673042 169.447539 L 257.79677 166.448316 L 258.920499 164.159171 L 259.856939 162.746572 L 260.606091 161.976711 L 261.167955 161.651788 L 261.72982 161.587739 L 262.291684 161.832767 L 262.853548 162.436668 L 263.415412 163.440528 L 264.164565 165.42413 L 265.101005 168.776698 L 266.599309 174.29944 L 267.161174 175.523589 L 267.53575 175.850894 L 267.723038 175.84421 L 268.097614 175.466457 L 268.47219 174.593096 L 269.034054 172.395762 L 269.783207 168.105413 L 271.281511 157.414204 L 272.592528 148.84891 L 273.528968 144.041364 L 274.465408 140.302477 L 275.401849 137.420742 L 276.338289 135.186616 L 277.274729 133.457893 L 278.21117 132.175548 L 278.960322 131.485078 L 279.522186 131.193959 L 280.084051 131.134352 L 280.645915 131.34998 L 281.207779 131.890419 L 281.769643 132.803972 L 282.331507 134.125613 L 283.08066 136.523072 L 284.204388 141.110369 L 285.328116 145.493749 L 285.889981 146.890215 L 286.264557 147.331825 L 286.451845 147.382121 L 286.639133 147.311816 L 287.013709 146.799655 L 287.388285 145.795333 L 287.950149 143.440331 L 288.699302 139.06984 L 291.695911 119.87595 L 292.632351 115.783899 L 293.568792 112.68062 L 294.505232 110.342505 L 295.441672 108.582891 L 296.378113 107.292363 L 297.127265 106.577844 L 297.876417 106.171477 L 298.438281 106.103914 L 299.000146 106.280609 L 299.56201 106.747781 L 300.123874 107.555601 L 300.685738 108.749539 L 301.434891 110.983653 L 302.371331 114.709336 L 304.056923 121.909644 L 304.618788 123.447191 L 304.993364 123.982386 L 305.36794 124.055588 L 305.742516 123.636266 L 306.117092 122.724412 L 306.678956 120.507421 L 307.428109 116.319662 L 310.424718 97.842253 L 311.361158 93.969441 L 312.297599 91.08322 L 313.234039 88.960002 L 314.170479 87.413147 L 315.10692 86.333262 L 315.856072 85.785747 L 316.605224 85.545053 L 317.167088 85.600878 L 317.728953 85.900223 L 318.290817 86.489311 L 318.852681 87.418318 L 319.414545 88.732718 L 320.163698 91.126328 L 321.100138 95.049595 L 322.785731 102.600612 L 323.347595 104.253666 L 323.722171 104.865482 L 324.096747 105.014999 L 324.471323 104.671687 L 324.845899 103.83554 L 325.407763 101.731543 L 326.156916 97.693391 L 329.153525 79.802588 L 330.089965 76.109273 L 331.026406 73.400763 L 331.962846 71.453489 L 332.899286 70.080827 L 333.648439 69.32009 L 334.397591 68.838249 L 335.146743 68.652456 L 335.708607 68.737204 L 336.270472 69.051216 L 336.832336 69.638227 L 337.3942 70.547828 L 337.956064 71.828334 L 338.705216 74.169093 L 339.641657 78.071072 L 341.701826 87.459696 L 342.26369 88.931405 L 342.638266 89.380301 L 342.825554 89.425884 L 343.012842 89.347712 L 343.387418 88.818139 L 343.761994 87.807073 L 344.323859 85.492073 L 345.073011 81.316376 L 347.507756 66.766225 L 348.444196 62.775415 L 349.380636 59.845138 L 350.317077 57.763967 L 351.066229 56.567571 L 351.815381 55.701992 L 352.564534 55.124096 L 353.313686 54.825258 L 353.87555 54.79847 L 354.437414 54.966093 L 354.999279 55.362484 L 355.561143 56.031382 L 356.123007 57.02238 L 356.872159 58.926655 L 357.621312 61.557762 L 358.557752 65.775241 L 360.430633 74.542326 L 360.992497 76.091306 L 361.367073 76.59146 L 361.554361 76.662595 L 361.741649 76.609925 L 362.116225 76.131201 L 362.490801 75.170781 L 363.052666 72.931372 L 363.801818 68.85576 L 366.236563 54.625409 L 367.173003 50.755403 L 368.109443 47.944727 L 368.858596 46.317501 L 369.607748 45.12169 L 370.3569 44.272122 L 371.106053 43.717031 L 371.855205 43.439197 L 372.417069 43.421799 L 372.978933 43.589305 L 373.540798 43.97258 L 374.102662 44.612492 L 374.664526 45.55727 L 375.413678 47.376338 L 376.16283 49.911933 L 377.099271 54.055274 L 379.15944 63.966477 L 379.721304 65.578723 L 380.09588 66.120843 L 380.283168 66.212898 L 380.470456 66.181107 L 380.845032 65.744015 L 381.219608 64.825061 L 381.781473 62.647539 L 382.530625 58.65387 L 384.96537 44.68535 L 385.90181 40.914249 L 386.650962 38.668878 L 387.400115 36.994915 L 388.149267 35.777625 L 388.898419 34.924254 L 389.647572 34.37445 L 390.396724 34.102376 L 391.145876 34.116603 L 391.70774 34.339773 L 392.269605 34.778379 L 392.831469 35.473291 L 393.393333 36.47274 L 394.142485 38.364195 L 394.891637 40.971599 L 395.828078 45.203898 L 397.888247 55.307705 L 398.450111 56.971747 L 398.824687 57.548227 L 399.199263 57.642712 L 399.573839 57.239706 L 399.948415 56.354701 L 400.51028 54.22785 L 401.259432 50.30127 L 403.694177 36.547118 L 404.630617 32.856994 L 405.379769 30.675824 L 406.128922 29.06555 L 406.878074 27.911441 L 407.627226 27.12075 L 408.376379 26.633124 L 409.125531 26.422734 L 409.687395 26.45074 L 410.249259 26.655152 L 410.811123 27.063258 L 411.372988 27.712777 L 411.934852 28.649945 L 412.684004 30.433259 L 413.433156 32.916398 L 414.369597 37.022113 L 416.804342 48.882883 L 417.366206 50.285367 L 417.740782 50.652769 L 417.92807 50.652066 L 417.92807 50.652066" clip-path="url(#p4bd97fe445)"/></g><g id="patch_3"><path fill="none" stroke="#000" stroke-linecap="square" stroke-linejoin="miter" d="M 32.114646 259.161354 L 32.114646 19.634646"/></g><g id="patch_4"><path fill="none" stroke="#000" stroke-linecap="square" stroke-linejoin="miter" stroke-width=".8" d="M 429.165354 259.161354 L 429.165354 19.634646"/></g><g id="patch_5"><path fill="none" stroke="#000" stroke-linecap="square" stroke-linejoin="miter" d="M 32.114646 259.161354 L 429.165354 259.161354"/></g><g id="patch_6"><path fill="none" stroke="#000" stroke-linecap="square" stroke-linejoin="miter" stroke-width=".8" d="M 32.114646 19.634646 L 429.165354 19.634646"/></g><g id="text_12"><defs><path id="DejaVuSans-65" d="M 34.1875 63.1875 L 20.796875 26.90625 L 47.609375 26.90625 z M 28.609375 72.90625 L 39.796875 72.90625 L 67.578125 0 L 57.328125 0 L 50.6875 18.703125 L 17.828125 18.703125 L 11.1875 0 L 0.78125 0 z"/><path id="DejaVuSans-99" d="M 48.78125 52.59375 L 48.78125 44.1875 Q 44.96875 46.296875 41.140625 47.34375 Q 37.3125 48.390625 33.40625 48.390625 Q 24.65625 48.390625 19.8125 42.84375 Q 14.984375 37.3125 14.984375 27.296875 Q 14.984375 17.28125 19.8125 11.734375 Q 24.65625 6.203125 33.40625 6.203125 Q 37.3125 6.203125 41.140625 7.25 Q 44.96875 8.296875 48.78125 10.40625 L 48.78125 2.09375 Q 45.015625 0.34375 40.984375 -0.53125 Q 36.96875 -1.421875 32.421875 -1.421875 Q 20.0625 -1.421875 12.78125 6.34375 Q 5.515625 14.109375 5.515625 27.296875 Q 5.515625 40.671875 12.859375 48.328125 Q 20.21875 56 33.015625 56 Q 37.15625 56 41.109375 55.140625 Q 45.0625 54.296875 48.78125 52.59375 z"/><path id="DejaVuSans-107" d="M 9.078125 75.984375 L 18.109375 75.984375 L 18.109375 31.109375 L 44.921875 54.6875 L 56.390625 54.6875 L 27.390625 29.109375 L 57.625 0 L 45.90625 0 L 18.109375 26.703125 L 18.109375 0 L 9.078125 0 z"/><path id="DejaVuSans-108" d="M 9.421875 75.984375 L 18.40625 75.984375 L 18.40625 0 L 9.421875 0 z"/><path id="DejaVuSans-101" d="M 56.203125 29.59375 L 56.203125 25.203125 L 14.890625 25.203125 Q 15.484375 15.921875 20.484375 11.0625 Q 25.484375 6.203125 34.421875 6.203125 Q 39.59375 6.203125 44.453125 7.46875 Q 49.3125 8.734375 54.109375 11.28125 L 54.109375 2.78125 Q 49.265625 0.734375 44.1875 -0.34375 Q 39.109375 -1.421875 33.890625 -1.421875 Q 20.796875 -1.421875 13.15625 6.1875 Q 5.515625 13.8125 5.515625 26.8125 Q 5.515625 40.234375 12.765625 48.109375 Q 20.015625 56 32.328125 56 Q 43.359375 56 49.78125 48.890625 Q 56.203125 41.796875 56.203125 29.59375 z M 47.21875 32.234375 Q 47.125 39.59375 43.09375 43.984375 Q 39.0625 48.390625 32.421875 48.390625 Q 24.90625 48.390625 20.390625 44.140625 Q 15.875 39.890625 15.1875 32.171875 z"/><path id="DejaVuSans-121" d="M 32.171875 -5.078125 Q 28.375 -14.84375 24.75 -17.8125 Q 21.140625 -20.796875 15.09375 -20.796875 L 7.90625 -20.796875 L 7.90625 -13.28125 L 13.1875 -13.28125 Q 16.890625 -13.28125 18.9375 -11.515625 Q 21 -9.765625 23.484375 -3.21875 L 25.09375 0.875 L 2.984375 54.6875 L 12.5 54.6875 L 29.59375 11.921875 L 46.6875 54.6875 L 56.203125 54.6875 z"/><path id="DejaVuSans-32"/><path id="DejaVuSans-70" d="M 9.8125 72.90625 L 51.703125 72.90625 L 51.703125 64.59375 L 19.671875 64.59375 L 19.671875 43.109375 L 48.578125 43.109375 L 48.578125 34.8125 L 19.671875 34.8125 L 19.671875 0 L 9.8125 0 z"/><path id="DejaVuSans-117" d="M 8.5 21.578125 L 8.5 54.6875 L 17.484375 54.6875 L 17.484375 21.921875 Q 17.484375 14.15625 20.5 10.265625 Q 23.53125 6.390625 29.59375 6.390625 Q 36.859375 6.390625 41.078125 11.03125 Q 45.3125 15.671875 45.3125 23.6875 L 45.3125 54.6875 L 54.296875 54.6875 L 54.296875 0 L 45.3125 0 L 45.3125 8.40625 Q 42.046875 3.421875 37.71875 1 Q 33.40625 -1.421875 27.6875 -1.421875 Q 18.265625 -1.421875 13.375 4.4375 Q 8.5 10.296875 8.5 21.578125 z M 31.109375 56 z"/><path id="DejaVuSans-110" d="M 54.890625 33.015625 L 54.890625 0 L 45.90625 0 L 45.90625 32.71875 Q 45.90625 40.484375 42.875 44.328125 Q 39.84375 48.1875 33.796875 48.1875 Q 26.515625 48.1875 22.3125 43.546875 Q 18.109375 38.921875 18.109375 30.90625 L 18.109375 0 L 9.078125 0 L 9.078125 54.6875 L 18.109375 54.6875 L 18.109375 46.1875 Q 21.34375 51.125 25.703125 53.5625 Q 30.078125 56 35.796875 56 Q 45.21875 56 50.046875 50.171875 Q 54.890625 44.34375 54.890625 33.015625 z"/><path id="DejaVuSans-116" d="M 18.3125 70.21875 L 18.3125 54.6875 L 36.8125 54.6875 L 36.8125 47.703125 L 18.3125 47.703125 L 18.3125 18.015625 Q 18.3125 11.328125 20.140625 9.421875 Q 21.96875 7.515625 27.59375 7.515625 L 36.8125 7.515625 L 36.8125 0 L 27.59375 0 Q 17.1875 0 13.234375 3.875 Q 9.28125 7.765625 9.28125 18.015625 L 9.28125 47.703125 L 2.6875 47.703125 L 2.6875 54.6875 L 9.28125 54.6875 L 9.28125 70.21875 z"/><path id="DejaVuSans-105" d="M 9.421875 54.6875 L 18.40625 54.6875 L 18.40625 0 L 9.421875 0 z M 9.421875 75.984375 L 18.40625 75.984375 L 18.40625 64.59375 L 9.421875 64.59375 z"/><path id="DejaVuSans-111" d="M 30.609375 48.390625 Q 23.390625 48.390625 19.1875 42.75 Q 14.984375 37.109375 14.984375 27.296875 Q 14.984375 17.484375 19.15625 11.84375 Q 23.34375 6.203125 30.609375 6.203125 Q 37.796875 6.203125 41.984375 11.859375 Q 46.1875 17.53125 46.1875 27.296875 Q 46.1875 37.015625 41.984375 42.703125 Q 37.796875 48.390625 30.609375 48.390625 z M 30.609375 56 Q 42.328125 56 49.015625 48.375 Q 55.71875 40.765625 55.71875 27.296875 Q 55.71875 13.875 49.015625 6.21875 Q 42.328125 -1.421875 30.609375 -1.421875 Q 18.84375 -1.421875 12.171875 6.21875 Q 5.515625 13.875 5.515625 27.296875 Q 5.515625 40.765625 12.171875 48.375 Q 18.84375 56 30.609375 56 z"/></defs><g transform="translate(175.180312 13.634646)scale(0.14 -0.14)"><use xlink:href="#DejaVuSans-65"/><use x="68.393" xlink:href="#DejaVuSans-99"/><use x="123.373" xlink:href="#DejaVuSans-107"/><use x="181.283" xlink:href="#DejaVuSans-108"/><use x="209.066" xlink:href="#DejaVuSans-101"/><use x="270.59" xlink:href="#DejaVuSans-121"/><use x="329.77" xlink:href="#DejaVuSans-32"/><use x="361.557" xlink:href="#DejaVuSans-70"/><use x="418.998" xlink:href="#DejaVuSans-117"/><use x="482.377" xlink:href="#DejaVuSans-110"/><use x="545.756" xlink:href="#DejaVuSans-99"/><use x="600.736" xlink:href="#DejaVuSans-116"/><use x="639.945" xlink:href="#DejaVuSans-105"/><use x="667.729" xlink:href="#DejaVuSans-111"/><use x="728.91" xlink:href="#DejaVuSans-110"/></g></g></g></g><defs><clipPath id="p4bd97fe445"><rect width="397.051" height="239.527" x="32.115" y="19.635"/></clipPath></defs></svg>