<svg xmlns="http://www.w3.org/2000/svg" xmlns:xlink="http://www.w3.org/1999/xlink" width="576" height="384" version="1.1" viewBox="0 0 432 288"><defs><style type="text/css">*{stroke-linecap:butt;stroke-linejoin:round}</style></defs><g id="figure_1"><g id="patch_1"><path fill="#fff" d="M 0 288 L 432 288 L 432 0 L 0 0 z"/></g><g id="axes_1"><g id="patch_2"><path fill="#fff" d="M 29.864646 259.161354 L 429.165354 259.161354 L 429.165354 19.634646 L 29.864646 19.634646 z"/></g><g id="matplotlib.axis_1"><g id="xtick_1"><g id="line2d_1"><path fill="none" stroke="#000" stroke-linecap="square" stroke-opacity=".1" stroke-width=".5" d="M 41.165609 259.161354 L 41.165609 19.634646" clip-path="url(#pa784017c64)"/></g><g id="line2d_2"><defs><path id="ma1857ced09" stroke="#000" stroke-width=".8" d="M 0 0 L 0 -3.5"/></defs><g><use x="41.166" y="259.161" stroke="#000" stroke-width=".8" xlink:href="#ma1857ced09"/></g></g><g id="text_1"><defs><path id="DejaVuSans-48" d="M 31.78125 66.40625 Q 24.171875 66.40625 20.328125 58.90625 Q 16.5 51.421875 16.5 36.375 Q 16.5 21.390625 20.328125 13.890625 Q 24.171875 6.390625 31.78125 6.390625 Q 39.453125 6.390625 43.28125 13.890625 Q 47.125 21.390625 47.125 36.375 Q 47.125 51.421875 43.28125 58.90625 Q 39.453125 66.40625 31.78125 66.40625 z M 31.78125 74.21875 Q 44.046875 74.21875 50.515625 64.515625 Q 56.984375 54.828125 56.984375 36.375 Q 56.984375 17.96875 50.515625 8.265625 Q 44.046875 -1.421875 31.78125 -1.421875 Q 19.53125 -1.421875 13.0625 8.265625 Q 6.59375 17.96875 6.59375 36.375 Q 6.59375 54.828125 13.0625 64.515625 Q 19.53125 74.21875 31.78125 74.21875 z"/><path id="DejaVuSans-46" d="M 10.6875 12.40625 L 21 12.40625 L 21 0 L 10.6875 0 z"/></defs><g transform="translate(34.804359 268.740104)scale(0.08 -0.08)"><use xlink:href="#DejaVuSans-48"/><use x="63.623" xlink:href="#DejaVuSans-46"/><use x="95.41" xlink:href="#DejaVuSans-48"/></g></g></g><g id="xtick_2"><g id="line2d_3"><path fill="none" stroke="#000" stroke-linecap="square" stroke-opacity=".1" stroke-width=".5" d="M 135.340305 259.161354 L 135.340305 19.634646" clip-path="url(#pa784017c64)"/></g><g id="line2d_4"><g><use x="135.34" y="259.161" stroke="#000" stroke-width=".8" xlink:href="#ma1857ced09"/></g></g><g id="text_2"><defs><path id="DejaVuSans-50" d="M 19.1875 8.296875 L 53.609375 8.296875 L 53.609375 0 L 7.328125 0 L 7.328125 8.296875 Q 12.9375 14.109375 22.625 23.890625 Q 32.328125 33.6875 34.8125 36.53125 Q 39.546875 41.84375 41.421875 45.53125 Q 43.3125 49.21875 43.3125 52.78125 Q 43.3125 58.59375 39.234375 62.25 Q 35.15625 65.921875 28.609375 65.921875 Q 23.96875 65.921875 18.8125 64.3125 Q 13.671875 62.703125 7.8125 59.421875 L 7.8125 69.390625 Q 13.765625 71.78125 18.9375 73 Q 24.125 74.21875 28.421875 74.21875 Q 39.75 74.21875 46.484375 68.546875 Q 53.21875 62.890625 53.21875 53.421875 Q 53.21875 48.921875 51.53125 44.890625 Q 49.859375 40.875 45.40625 35.40625 Q 44.1875 33.984375 37.640625 27.21875 Q 31.109375 20.453125 19.1875 8.296875 z"/><path id="DejaVuSans-53" d="M 10.796875 72.90625 L 49.515625 72.90625 L 49.515625 64.59375 L 19.828125 64.59375 L 19.828125 46.734375 Q 21.96875 47.46875 24.109375 47.828125 Q 26.265625 48.1875 28.421875 48.1875 Q 40.625 48.1875 47.75 41.5 Q 54.890625 34.8125 54.890625 23.390625 Q 54.890625 11.625 47.5625 5.09375 Q 40.234375 -1.421875 26.90625 -1.421875 Q 22.3125 -1.421875 17.546875 -0.640625 Q 12.796875 0.140625 7.71875 1.703125 L 7.71875 11.625 Q 12.109375 9.234375 16.796875 8.0625 Q 21.484375 6.890625 26.703125 6.890625 Q 35.15625 6.890625 40.078125 11.328125 Q 45.015625 15.765625 45.015625 23.390625 Q 45.015625 31 40.078125 35.4375 Q 35.15625 39.890625 26.703125 39.890625 Q 22.75 39.890625 18.8125 39.015625 Q 14.890625 38.140625 10.796875 36.28125 z"/></defs><g transform="translate(128.979055 268.740104)scale(0.08 -0.08)"><use xlink:href="#DejaVuSans-50"/><use x="63.623" xlink:href="#DejaVuSans-46"/><use x="95.41" xlink:href="#DejaVuSans-53"/></g></g></g><g id="xtick_3"><g id="line2d_5"><path fill="none" stroke="#000" stroke-linecap="square" stroke-opacity=".1" stroke-width=".5" d="M 229.515 259.161354 L 229.515 19.634646" clip-path="url(#pa784017c64)"/></g><g id="line2d_6"><g><use x="229.515" y="259.161" stroke="#000" stroke-width=".8" xlink:href="#ma1857ced09"/></g></g><g id="text_3"><g transform="translate(223.15375 268.740104)scale(0.08 -0.08)"><use xlink:href="#DejaVuSans-53"/><use x="63.623" xlink:href="#DejaVuSans-46"/><use x="95.41" xlink:href="#DejaVuSans-48"/></g></g></g><g id="xtick_4"><g id="line2d_7"><path fill="none" stroke="#000" stroke-linecap="square" stroke-opacity=".1" stroke-width=".5" d="M 323.689695 259.161354 L 323.689695 19.634646" clip-path="url(#pa784017c64)"/></g><g id="line2d_8"><g><use x="323.69" y="259.161" stroke="#000" stroke-width=".8" xlink:href="#ma1857ced09"/></g></g><g id="text_4"><defs><path id="DejaVuSans-55" d="M 8.203125 72.90625 L 55.078125 72.90625 L 55.078125 68.703125 L 28.609375 0 L 18.3125 0 L 43.21875 64.59375 L 8.203125 64.59375 z"/></defs><g transform="translate(317.328445 268.740104)scale(0.08 -0.08)"><use xlink:href="#DejaVuSans-55"/><use x="63.623" xlink:href="#DejaVuSans-46"/><use x="95.41" xlink:href="#DejaVuSans-53"/></g></g></g><g id="xtick_5"><g id="line2d_9"><path fill="none" stroke="#000" stroke-linecap="square" stroke-opacity=".1" stroke-width=".5" d="M 417.864391 259.161354 L 417.864391 19.634646" clip-path="url(#pa784017c64)"/></g><g id="line2d_10"><g><use x="417.864" y="259.161" stroke="#000" stroke-width=".8" xlink:href="#ma1857ced09"/></g></g><g id="text_5"><defs><path id="DejaVuSans-49" d="M 12.40625 8.296875 L 28.515625 8.296875 L 28.515625 63.921875 L 10.984375 60.40625 L 10.984375 69.390625 L 28.421875 72.90625 L 38.28125 72.90625 L 38.28125 8.296875 L 54.390625 8.296875 L 54.390625 0 L 12.40625 0 z"/></defs><g transform="translate(408.958141 268.740104)scale(0.08 -0.08)"><use xlink:href="#DejaVuSans-49"/><use x="63.623" xlink:href="#DejaVuSans-48"/><use x="127.246" xlink:href="#DejaVuSans-46"/><use x="159.033" xlink:href="#DejaVuSans-48"/></g></g></g><g id="text_6"><defs><path id="DejaVuSans-Oblique-120" d="M 60.015625 54.6875 L 34.90625 27.875 L 50.296875 0 L 39.984375 0 L 28.421875 21.6875 L 8.296875 0 L -2.59375 0 L 24.3125 28.8125 L 10.015625 54.6875 L 20.3125 54.6875 L 30.8125 34.90625 L 49.125 54.6875 z"/></defs><g transform="translate(223.63 282.762136)scale(0.11 -0.11)"><use transform="translate(0 0.3125)" xlink:href="#DejaVuSans-Oblique-120"/><use transform="translate(59.179688 -16.09375)scale(0.7)" xlink:href="#DejaVuSans-49"/></g></g></g><g id="matplotlib.axis_2"><g id="ytick_1"><g id="line2d_11"><path fill="none" stroke="#000" stroke-linecap="square" stroke-opacity=".1" stroke-width=".5" d="M 29.864646 215.793584 L 429.165354 215.793584" clip-path="url(#pa784017c64)"/></g><g id="line2d_12"><defs><path id="mf37b10c93f" stroke="#000" stroke-width=".8" d="M 0 0 L 3.5 0"/></defs><g><use x="29.865" y="215.794" stroke="#000" stroke-width=".8" xlink:href="#mf37b10c93f"/></g></g><g id="text_7"><defs><path id="DejaVuSans-45" d="M 4.890625 31.390625 L 31.203125 31.390625 L 31.203125 23.390625 L 4.890625 23.390625 z"/></defs><g transform="translate(18.388396 218.832959)scale(0.08 -0.08)"><use xlink:href="#DejaVuSans-45"/><use x="36.084" xlink:href="#DejaVuSans-50"/></g></g></g><g id="ytick_2"><g id="line2d_13"><path fill="none" stroke="#000" stroke-linecap="square" stroke-opacity=".1" stroke-width=".5" d="M 29.864646 170.517183 L 429.165354 170.517183" clip-path="url(#pa784017c64)"/></g><g id="line2d_14"><g><use x="29.865" y="170.517" stroke="#000" stroke-width=".8" xlink:href="#mf37b10c93f"/></g></g><g id="text_8"><g transform="translate(18.388396 173.556558)scale(0.08 -0.08)"><use xlink:href="#DejaVuSans-45"/><use x="36.084" xlink:href="#DejaVuSans-49"/></g></g></g><g id="ytick_3"><g id="line2d_15"><path fill="none" stroke="#000" stroke-linecap="square" stroke-opacity=".1" stroke-width=".5" d="M 29.864646 125.240782 L 429.165354 125.240782" clip-path="url(#pa784017c64)"/></g><g id="line2d_16"><g><use x="29.865" y="125.241" stroke="#000" stroke-width=".8" xlink:href="#mf37b10c93f"/></g></g><g id="text_9"><g transform="translate(21.274646 128.280157)scale(0.08 -0.08)"><use xlink:href="#DejaVuSans-48"/></g></g></g><g id="ytick_4"><g id="line2d_17"><path fill="none" stroke="#000" stroke-linecap="square" stroke-opacity=".1" stroke-width=".5" d="M 29.864646 79.964381 L 429.165354 79.964381" clip-path="url(#pa784017c64)"/></g><g id="line2d_18"><g><use x="29.865" y="79.964" stroke="#000" stroke-width=".8" xlink:href="#mf37b10c93f"/></g></g><g id="text_10"><g transform="translate(21.274646 83.003756)scale(0.08 -0.08)"><use xlink:href="#DejaVuSans-49"/></g></g></g><g id="ytick_5"><g id="line2d_19"><path fill="none" stroke="#000" stroke-linecap="square" stroke-opacity=".1" stroke-width=".5" d="M 29.864646 34.687979 L 429.165354 34.687979" clip-path="url(#pa784017c64)"/></g><g id="line2d_20"><g><use x="29.865" y="34.688" stroke="#000" stroke-width=".8" xlink:href="#mf37b10c93f"/></g></g><g id="text_11"><g transform="translate(21.274646 37.727354)scale(0.08 -0.08)"><use xlink:href="#DejaVuSans-50"/></g></g></g><g id="text_12"><defs><path id="DejaVuSans-Oblique-121" d="M 24.8125 -5.078125 Q 18.5625 -15.578125 14.625 -18.1875 Q 10.6875 -20.796875 4.59375 -20.796875 L -2.484375 -20.796875 L -0.984375 -13.28125 L 4.203125 -13.28125 Q 7.953125 -13.28125 10.59375 -11.234375 Q 13.234375 -9.1875 16.5 -3.21875 L 19.28125 2 L 7.171875 54.6875 L 16.703125 54.6875 L 25.78125 12.796875 L 50.875 54.6875 L 60.296875 54.6875 z"/></defs><g transform="translate(12.078396 142.698)rotate(-90)scale(0.11 -0.11)"><use transform="translate(0 0.3125)" xlink:href="#DejaVuSans-Oblique-121"/></g></g></g><g id="line2d_21"><path fill="none" stroke="#009afa" stroke-linecap="round" d="M 41.165609 125.240782 L 42.295705 125.47601 L 43.802501 126.078628 L 45.685995 127.118373 L 47.946187 128.679788 L 50.20638 130.51322 L 52.843271 132.930954 L 55.856862 135.990648 L 59.623849 140.156554 L 64.520934 145.955077 L 80.718981 165.484453 L 84.485969 169.558694 L 87.876258 172.925004 L 90.889848 175.632009 L 93.903439 178.033058 L 96.54033 179.856874 L 99.177222 181.400676 L 101.437414 182.486982 L 103.697607 183.343405 L 105.9578 183.960506 L 108.217992 184.329974 L 110.478185 184.444664 L 112.738378 184.298625 L 114.99857 183.887129 L 117.258763 183.206694 L 119.518956 182.255103 L 121.779148 181.031413 L 124.039341 179.535969 L 126.299534 177.770401 L 128.559726 175.737629 L 131.196618 173.034015 L 133.833509 169.981311 L 136.470401 166.590664 L 139.483991 162.319124 L 142.497581 157.647262 L 145.88787 151.946752 L 149.278159 145.817616 L 153.045147 138.564195 L 157.565533 129.34515 L 162.839316 118.056297 L 171.503388 98.875665 L 179.790761 80.704103 L 184.687845 70.470913 L 188.831532 62.298492 L 192.598519 55.36616 L 195.988808 49.607705 L 199.002399 44.92286 L 201.63929 41.191851 L 204.276182 37.831225 L 206.913073 34.864677 L 209.173266 32.652162 L 211.433458 30.757786 L 213.693651 29.192951 L 215.577145 28.148045 L 217.460639 27.344322 L 219.344133 26.786384 L 221.227627 26.478195 L 223.111121 26.423055 L 224.994615 26.623594 L 226.878109 27.081753 L 228.761602 27.798782 L 230.645096 28.775225 L 232.52859 30.010917 L 234.412084 31.504978 L 236.295578 33.255814 L 238.555771 35.692455 L 240.815963 38.490131 L 243.076156 41.642018 L 245.336349 45.139833 L 247.97324 49.644787 L 250.610132 54.589451 L 253.623722 60.752653 L 256.637312 67.429126 L 260.027601 75.505822 L 263.794589 85.111401 L 267.938276 96.340207 L 272.83536 110.330664 L 278.86254 128.290132 L 295.813986 179.267928 L 300.334371 191.984543 L 304.478058 202.978664 L 307.868347 211.39479 L 311.258636 219.206286 L 314.272226 225.582935 L 316.909117 230.685137 L 319.546009 235.310169 L 321.806202 238.873467 L 324.066394 242.04943 L 326.326587 244.823194 L 328.210081 246.817678 L 330.093575 248.516479 L 331.977069 249.913321 L 333.860563 251.00268 L 335.367358 251.64956 L 336.874153 252.094524 L 338.380948 252.33583 L 339.887743 252.372066 L 341.394538 252.202158 L 342.901333 251.82537 L 344.408128 251.241309 L 345.914924 250.449926 L 347.798417 249.169633 L 349.681911 247.567226 L 351.565405 245.644893 L 353.448899 243.405665 L 355.332393 240.853416 L 357.592586 237.384222 L 359.852778 233.480818 L 362.112971 229.154608 L 364.749863 223.590497 L 367.386754 217.492265 L 370.400344 209.902848 L 373.413935 201.694276 L 376.804224 191.779937 L 380.571211 180.008549 L 384.714898 166.271428 L 389.611982 149.18585 L 395.639163 127.293198 L 412.213909 66.621804 L 416.734295 51.099746 L 417.864391 47.349715 L 417.864391 47.349715" clip-path="url(#pa784017c64)"/></g><g id="patch_3"><path fill="none" stroke="#000" stroke-linecap="square" stroke-linejoin="miter" d="M 29.864646 259.161354 L 29.864646 19.634646"/></g><g id="patch_4"><path fill="none" stroke="#000" stroke-linecap="square" stroke-linejoin="miter" stroke-width=".8" d="M 429.165354 259.161354 L 429.165354 19.634646"/></g><g id="patch_5"><path fill="none" stroke="#000" stroke-linecap="square" stroke-linejoin="miter" d="M 29.864646 259.161354 L 429.165354 259.161354"/></g><g id="patch_6"><path fill="none" stroke="#000" stroke-linecap="square" stroke-linejoin="miter" stroke-width=".8" d="M 29.864646 19.634646 L 429.165354 19.634646"/></g><g id="text_13"><defs><path id="DejaVuSans-65" d="M 34.1875 63.1875 L 20.796875 26.90625 L 47.609375 26.90625 z M 28.609375 72.90625 L 39.796875 72.90625 L 67.578125 0 L 57.328125 0 L 50.6875 18.703125 L 17.828125 18.703125 L 11.1875 0 L 0.78125 0 z"/><path id="DejaVuSans-108" d="M 9.421875 75.984375 L 18.40625 75.984375 L 18.40625 0 L 9.421875 0 z"/><path id="DejaVuSans-112" d="M 18.109375 8.203125 L 18.109375 -20.796875 L 9.078125 -20.796875 L 9.078125 54.6875 L 18.109375 54.6875 L 18.109375 46.390625 Q 20.953125 51.265625 25.265625 53.625 Q 29.59375 56 35.59375 56 Q 45.5625 56 51.78125 48.09375 Q 58.015625 40.1875 58.015625 27.296875 Q 58.015625 14.40625 51.78125 6.484375 Q 45.5625 -1.421875 35.59375 -1.421875 Q 29.59375 -1.421875 25.265625 0.953125 Q 20.953125 3.328125 18.109375 8.203125 z M 48.6875 27.296875 Q 48.6875 37.203125 44.609375 42.84375 Q 40.53125 48.484375 33.40625 48.484375 Q 26.265625 48.484375 22.1875 42.84375 Q 18.109375 37.203125 18.109375 27.296875 Q 18.109375 17.390625 22.1875 11.75 Q 26.265625 6.109375 33.40625 6.109375 Q 40.53125 6.109375 44.609375 11.75 Q 48.6875 17.390625 48.6875 27.296875 z"/><path id="DejaVuSans-105" d="M 9.421875 54.6875 L 18.40625 54.6875 L 18.40625 0 L 9.421875 0 z M 9.421875 75.984375 L 18.40625 75.984375 L 18.40625 64.59375 L 9.421875 64.59375 z"/><path id="DejaVuSans-110" d="M 54.890625 33.015625 L 54.890625 0 L 45.90625 0 L 45.90625 32.71875 Q 45.90625 40.484375 42.875 44.328125 Q 39.84375 48.1875 33.796875 48.1875 Q 26.515625 48.1875 22.3125 43.546875 Q 18.109375 38.921875 18.109375 30.90625 L 18.109375 0 L 9.078125 0 L 9.078125 54.6875 L 18.109375 54.6875 L 18.109375 46.1875 Q 21.34375 51.125 25.703125 53.5625 Q 30.078125 56 35.796875 56 Q 45.21875 56 50.046875 50.171875 Q 54.890625 44.34375 54.890625 33.015625 z"/><path id="DejaVuSans-101" d="M 56.203125 29.59375 L 56.203125 25.203125 L 14.890625 25.203125 Q 15.484375 15.921875 20.484375 11.0625 Q 25.484375 6.203125 34.421875 6.203125 Q 39.59375 6.203125 44.453125 7.46875 Q 49.3125 8.734375 54.109375 11.28125 L 54.109375 2.78125 Q 49.265625 0.734375 44.1875 -0.34375 Q 39.109375 -1.421875 33.890625 -1.421875 Q 20.796875 -1.421875 13.15625 6.1875 Q 5.515625 13.8125 5.515625 26.8125 Q 5.515625 40.234375 12.765625 48.109375 Q 20.015625 56 32.328125 56 Q 43.359375 56 49.78125 48.890625 Q 56.203125 41.796875 56.203125 29.59375 z M 47.21875 32.234375 Q 47.125 39.59375 43.09375 43.984375 Q 39.0625 48.390625 32.421875 48.390625 Q 24.90625 48.390625 20.390625 44.140625 Q 15.875 39.890625 15.1875 32.171875 z"/><path id="DejaVuSans-32"/><path id="DejaVuSans-70" d="M 9.8125 72.90625 L 51.703125 72.90625 L 51.703125 64.59375 L 19.671875 64.59375 L 19.671875 43.109375 L 48.578125 43.109375 L 48.578125 34.8125 L 19.671875 34.8125 L 19.671875 0 L 9.8125 0 z"/><path id="DejaVuSans-117" d="M 8.5 21.578125 L 8.5 54.6875 L 17.484375 54.6875 L 17.484375 21.921875 Q 17.484375 14.15625 20.5 10.265625 Q 23.53125 6.390625 29.59375 6.390625 Q 36.859375 6.390625 41.078125 11.03125 Q 45.3125 15.671875 45.3125 23.6875 L 45.3125 54.6875 L 54.296875 54.6875 L 54.296875 0 L 45.3125 0 L 45.3125 8.40625 Q 42.046875 3.421875 37.71875 1 Q 33.40625 -1.421875 27.6875 -1.421875 Q 18.265625 -1.421875 13.375 4.4375 Q 8.5 10.296875 8.5 21.578125 z M 31.109375 56 z"/><path id="DejaVuSans-99" d="M 48.78125 52.59375 L 48.78125 44.1875 Q 44.96875 46.296875 41.140625 47.34375 Q 37.3125 48.390625 33.40625 48.390625 Q 24.65625 48.390625 19.8125 42.84375 Q 14.984375 37.3125 14.984375 27.296875 Q 14.984375 17.28125 19.8125 11.734375 Q 24.65625 6.203125 33.40625 6.203125 Q 37.3125 6.203125 41.140625 7.25 Q 44.96875 8.296875 48.78125 10.40625 L 48.78125 2.09375 Q 45.015625 0.34375 40.984375 -0.53125 Q 36.96875 -1.421875 32.421875 -1.421875 Q 20.0625 -1.421875 12.78125 6.34375 Q 5.515625 14.109375 5.515625 27.296875 Q 5.515625 40.671875 12.859375 48.328125 Q 20.21875 56 33.015625 56 Q 37.15625 56 41.109375 55.140625 Q 45.0625 54.296875 48.78125 52.59375 z"/><path id="DejaVuSans-116" d="M 18.3125 70.21875 L 18.3125 54.6875 L 36.8125 54.6875 L 36.8125 47.703125 L 18.3125 47.703125 L 18.3125 18.015625 Q 18.3125 11.328125 20.140625 9.421875 Q 21.96875 7.515625 27.59375 7.515625 L 36.8125 7.515625 L 36.8125 0 L 27.59375 0 Q 17.1875 0 13.234375 3.875 Q 9.28125 7.765625 9.28125 18.015625 L 9.28125 47.703125 L 2.6875 47.703125 L 2.6875 54.6875 L 9.28125 54.6875 L 9.28125 70.21875 z"/><path id="DejaVuSans-111" d="M 30.609375 48.390625 Q 23.390625 48.390625 19.1875 42.75 Q 14.984375 37.109375 14.984375 27.296875 Q 14.984375 17.484375 19.15625 11.84375 Q 23.34375 6.203125 30.609375 6.203125 Q 37.796875 6.203125 41.984375 11.859375 Q 46.1875 17.53125 46.1875 27.296875 Q 46.1875 37.015625 41.984375 42.703125 Q 37.796875 48.390625 30.609375 48.390625 z M 30.609375 56 Q 42.328125 56 49.015625 48.375 Q 55.71875 40.765625 55.71875 27.296875 Q 55.71875 13.875 49.015625 6.21875 Q 42.328125 -1.421875 30.609375 -1.421875 Q 18.84375 -1.421875 12.171875 6.21875 Q 5.515625 13.875 5.515625 27.296875 Q 5.515625 40.765625 12.171875 48.375 Q 18.84375 56 30.609375 56 z"/></defs><g transform="translate(168.295625 13.634646)scale(0.14 -0.14)"><use xlink:href="#DejaVuSans-65"/><use x="68.408" xlink:href="#DejaVuSans-108"/><use x="96.191" xlink:href="#DejaVuSans-112"/><use x="159.668" xlink:href="#DejaVuSans-105"/><use x="187.451" xlink:href="#DejaVuSans-110"/><use x="250.83" xlink:href="#DejaVuSans-101"/><use x="312.354" xlink:href="#DejaVuSans-45"/><use x="348.438" xlink:href="#DejaVuSans-50"/><use x="412.061" xlink:href="#DejaVuSans-32"/><use x="443.848" xlink:href="#DejaVuSans-70"/><use x="501.289" xlink:href="#DejaVuSans-117"/><use x="564.668" xlink:href="#DejaVuSans-110"/><use x="628.047" xlink:href="#DejaVuSans-99"/><use x="683.027" xlink:href="#DejaVuSans-116"/><use x="722.236" xlink:href="#DejaVuSans-105"/><use x="750.02" xlink:href="#DejaVuSans-111"/><use x="811.201" xlink:href="#DejaVuSans-110"/></g></g></g></g><defs><clipPath id="pa784017c64"><rect width="399.301" height="239.527" x="29.865" y="19.635"/></clipPath></defs></svg>