<svg xmlns="http://www.w3.org/2000/svg" xmlns:xlink="http://www.w3.org/1999/xlink" width="576" height="384" version="1.1" viewBox="0 0 432 288"><defs><style type="text/css">*{stroke-linecap:butt;stroke-linejoin:round}</style></defs><g id="figure_1"><g id="patch_1"><path fill="#fff" d="M 0 288 L 432 288 L 432 0 L 0 0 z"/></g><g id="axes_1"><g id="patch_2"><path fill="#fff" d="M 26.984646 259.161354 L 429.165354 259.161354 L 429.165354 19.634646 L 26.984646 19.634646 z"/></g><g id="matplotlib.axis_1"><g id="xtick_1"><g id="line2d_1"><path fill="none" stroke="#000" stroke-linecap="square" stroke-opacity=".1" stroke-width=".5" d="M 38.367119 259.161354 L 38.367119 19.634646" clip-path="url(#p9b6cbc1493)"/></g><g id="line2d_2"><defs><path id="m4b9e4847fc" stroke="#000" stroke-width=".8" d="M 0 0 L 0 -3.5"/></defs><g><use x="38.367" y="259.161" stroke="#000" stroke-width=".8" xlink:href="#m4b9e4847fc"/></g></g><g id="text_1"><defs><path id="DejaVuSans-45" d="M 4.890625 31.390625 L 31.203125 31.390625 L 31.203125 23.390625 L 4.890625 23.390625 z"/><path id="DejaVuSans-49" d="M 12.40625 8.296875 L 28.515625 8.296875 L 28.515625 63.921875 L 10.984375 60.40625 L 10.984375 69.390625 L 28.421875 72.90625 L 38.28125 72.90625 L 38.28125 8.296875 L 54.390625 8.296875 L 54.390625 0 L 12.40625 0 z"/><path id="DejaVuSans-48" d="M 31.78125 66.40625 Q 24.171875 66.40625 20.328125 58.90625 Q 16.5 51.421875 16.5 36.375 Q 16.5 21.390625 20.328125 13.890625 Q 24.171875 6.390625 31.78125 6.390625 Q 39.453125 6.390625 43.28125 13.890625 Q 47.125 21.390625 47.125 36.375 Q 47.125 51.421875 43.28125 58.90625 Q 39.453125 66.40625 31.78125 66.40625 z M 31.78125 74.21875 Q 44.046875 74.21875 50.515625 64.515625 Q 56.984375 54.828125 56.984375 36.375 Q 56.984375 17.96875 50.515625 8.265625 Q 44.046875 -1.421875 31.78125 -1.421875 Q 19.53125 -1.421875 13.0625 8.265625 Q 6.59375 17.96875 6.59375 36.375 Q 6.59375 54.828125 13.0625 64.515625 Q 19.53125 74.21875 31.78125 74.21875 z"/></defs><g transform="translate(31.833994 268.740104)scale(0.08 -0.08)"><use xlink:href="#DejaVuSans-45"/><use x="36.084" xlink:href="#DejaVuSans-49"/><use x="99.707" xlink:href="#DejaVuSans-48"/></g></g></g><g id="xtick_2"><g id="line2d_3"><path fill="none" stroke="#000" stroke-linecap="square" stroke-opacity=".1" stroke-width=".5" d="M 133.221059 259.161354 L 133.221059 19.634646" clip-path="url(#p9b6cbc1493)"/></g><g id="line2d_4"><g><use x="133.221" y="259.161" stroke="#000" stroke-width=".8" xlink:href="#m4b9e4847fc"/></g></g><g id="text_2"><defs><path id="DejaVuSans-53" d="M 10.796875 72.90625 L 49.515625 72.90625 L 49.515625 64.59375 L 19.828125 64.59375 L 19.828125 46.734375 Q 21.96875 47.46875 24.109375 47.828125 Q 26.265625 48.1875 28.421875 48.1875 Q 40.625 48.1875 47.75 41.5 Q 54.890625 34.8125 54.890625 23.390625 Q 54.890625 11.625 47.5625 5.09375 Q 40.234375 -1.421875 26.90625 -1.421875 Q 22.3125 -1.421875 17.546875 -0.640625 Q 12.796875 0.140625 7.71875 1.703125 L 7.71875 11.625 Q 12.109375 9.234375 16.796875 8.0625 Q 21.484375 6.890625 26.703125 6.890625 Q 35.15625 6.890625 40.078125 11.328125 Q 45.015625 15.765625 45.015625 23.390625 Q 45.015625 31 40.078125 35.4375 Q 35.15625 39.890625 26.703125 39.890625 Q 22.75 39.890625 18.8125 39.015625 Q 14.890625 38.140625 10.796875 36.28125 z"/></defs><g transform="translate(129.232934 268.740104)scale(0.08 -0.08)"><use xlink:href="#DejaVuSans-45"/><use x="36.084" xlink:href="#DejaVuSans-53"/></g></g></g><g id="xtick_3"><g id="line2d_5"><path fill="none" stroke="#000" stroke-linecap="square" stroke-opacity=".1" stroke-width=".5" d="M 228.075 259.161354 L 228.075 19.634646" clip-path="url(#p9b6cbc1493)"/></g><g id="line2d_6"><g><use x="228.075" y="259.161" stroke="#000" stroke-width=".8" xlink:href="#m4b9e4847fc"/></g></g><g id="text_3"><g transform="translate(225.53 268.740104)scale(0.08 -0.08)"><use xlink:href="#DejaVuSans-48"/></g></g></g><g id="xtick_4"><g id="line2d_7"><path fill="none" stroke="#000" stroke-linecap="square" stroke-opacity=".1" stroke-width=".5" d="M 322.928941 259.161354 L 322.928941 19.634646" clip-path="url(#p9b6cbc1493)"/></g><g id="line2d_8"><g><use x="322.929" y="259.161" stroke="#000" stroke-width=".8" xlink:href="#m4b9e4847fc"/></g></g><g id="text_4"><g transform="translate(320.383941 268.740104)scale(0.08 -0.08)"><use xlink:href="#DejaVuSans-53"/></g></g></g><g id="xtick_5"><g id="line2d_9"><path fill="none" stroke="#000" stroke-linecap="square" stroke-opacity=".1" stroke-width=".5" d="M 417.782881 259.161354 L 417.782881 19.634646" clip-path="url(#p9b6cbc1493)"/></g><g id="line2d_10"><g><use x="417.783" y="259.161" stroke="#000" stroke-width=".8" xlink:href="#m4b9e4847fc"/></g></g><g id="text_5"><g transform="translate(412.692881 268.740104)scale(0.08 -0.08)"><use xlink:href="#DejaVuSans-49"/><use x="63.623" xlink:href="#DejaVuSans-48"/></g></g></g><g id="text_6"><defs><path id="DejaVuSans-Oblique-120" d="M 60.015625 54.6875 L 34.90625 27.875 L 50.296875 0 L 39.984375 0 L 28.421875 21.6875 L 8.296875 0 L -2.59375 0 L 24.3125 28.8125 L 10.015625 54.6875 L 20.3125 54.6875 L 30.8125 34.90625 L 49.125 54.6875 z"/></defs><g transform="translate(222.19 282.762136)scale(0.11 -0.11)"><use transform="translate(0 0.3125)" xlink:href="#DejaVuSans-Oblique-120"/><use transform="translate(59.179688 -16.09375)scale(0.7)" xlink:href="#DejaVuSans-49"/></g></g></g><g id="matplotlib.axis_2"><g id="ytick_1"><g id="line2d_11"><path fill="none" stroke="#000" stroke-linecap="square" stroke-opacity=".1" stroke-width=".5" d="M 26.984646 252.382297 L 429.165354 252.382297" clip-path="url(#p9b6cbc1493)"/></g><g id="line2d_12"><defs><path id="m007cf2124c" stroke="#000" stroke-width=".8" d="M 0 0 L 3.5 0"/></defs><g><use x="26.985" y="252.382" stroke="#000" stroke-width=".8" xlink:href="#m007cf2124c"/></g></g><g id="text_7"><g transform="translate(18.394646 255.421672)scale(0.08 -0.08)"><use xlink:href="#DejaVuSans-48"/></g></g></g><g id="ytick_2"><g id="line2d_13"><path fill="none" stroke="#000" stroke-linecap="square" stroke-opacity=".1" stroke-width=".5" d="M 26.984646 213.52217 L 429.165354 213.52217" clip-path="url(#p9b6cbc1493)"/></g><g id="line2d_14"><g><use x="26.985" y="213.522" stroke="#000" stroke-width=".8" xlink:href="#m007cf2124c"/></g></g><g id="text_8"><g transform="translate(18.394646 216.561545)scale(0.08 -0.08)"><use xlink:href="#DejaVuSans-49"/></g></g></g><g id="ytick_3"><g id="line2d_15"><path fill="none" stroke="#000" stroke-linecap="square" stroke-opacity=".1" stroke-width=".5" d="M 26.984646 174.662044 L 429.165354 174.662044" clip-path="url(#p9b6cbc1493)"/></g><g id="line2d_16"><g><use x="26.985" y="174.662" stroke="#000" stroke-width=".8" xlink:href="#m007cf2124c"/></g></g><g id="text_9"><defs><path id="DejaVuSans-50" d="M 19.1875 8.296875 L 53.609375 8.296875 L 53.609375 0 L 7.328125 0 L 7.328125 8.296875 Q 12.9375 14.109375 22.625 23.890625 Q 32.328125 33.6875 34.8125 36.53125 Q 39.546875 41.84375 41.421875 45.53125 Q 43.3125 49.21875 43.3125 52.78125 Q 43.3125 58.59375 39.234375 62.25 Q 35.15625 65.921875 28.609375 65.921875 Q 23.96875 65.921875 18.8125 64.3125 Q 13.671875 62.703125 7.8125 59.421875 L 7.8125 69.390625 Q 13.765625 71.78125 18.9375 73 Q 24.125 74.21875 28.421875 74.21875 Q 39.75 74.21875 46.484375 68.546875 Q 53.21875 62.890625 53.21875 53.421875 Q 53.21875 48.921875 51.53125 44.890625 Q 49.859375 40.875 45.40625 35.40625 Q 44.1875 33.984375 37.640625 27.21875 Q 31.109375 20.453125 19.1875 8.296875 z"/></defs><g transform="translate(18.394646 177.701419)scale(0.08 -0.08)"><use xlink:href="#DejaVuSans-50"/></g></g></g><g id="ytick_4"><g id="line2d_17"><path fill="none" stroke="#000" stroke-linecap="square" stroke-opacity=".1" stroke-width=".5" d="M 26.984646 135.801918 L 429.165354 135.801918" clip-path="url(#p9b6cbc1493)"/></g><g id="line2d_18"><g><use x="26.985" y="135.802" stroke="#000" stroke-width=".8" xlink:href="#m007cf2124c"/></g></g><g id="text_10"><defs><path id="DejaVuSans-51" d="M 40.578125 39.3125 Q 47.65625 37.796875 51.625 33 Q 55.609375 28.21875 55.609375 21.1875 Q 55.609375 10.40625 48.1875 4.484375 Q 40.765625 -1.421875 27.09375 -1.421875 Q 22.515625 -1.421875 17.65625 -0.515625 Q 12.796875 0.390625 7.625 2.203125 L 7.625 11.71875 Q 11.71875 9.328125 16.59375 8.109375 Q 21.484375 6.890625 26.8125 6.890625 Q 36.078125 6.890625 40.9375 10.546875 Q 45.796875 14.203125 45.796875 21.1875 Q 45.796875 27.640625 41.28125 31.265625 Q 36.765625 34.90625 28.71875 34.90625 L 20.21875 34.90625 L 20.21875 43.015625 L 29.109375 43.015625 Q 36.375 43.015625 40.234375 45.921875 Q 44.09375 48.828125 44.09375 54.296875 Q 44.09375 59.90625 40.109375 62.90625 Q 36.140625 65.921875 28.71875 65.921875 Q 24.65625 65.921875 20.015625 65.03125 Q 15.375 64.15625 9.8125 62.3125 L 9.8125 71.09375 Q 15.4375 72.65625 20.34375 73.4375 Q 25.25 74.21875 29.59375 74.21875 Q 40.828125 74.21875 47.359375 69.109375 Q 53.90625 64.015625 53.90625 55.328125 Q 53.90625 49.265625 50.4375 45.09375 Q 46.96875 40.921875 40.578125 39.3125 z"/></defs><g transform="translate(18.394646 138.841293)scale(0.08 -0.08)"><use xlink:href="#DejaVuSans-51"/></g></g></g><g id="ytick_5"><g id="line2d_19"><path fill="none" stroke="#000" stroke-linecap="square" stroke-opacity=".1" stroke-width=".5" d="M 26.984646 96.941792 L 429.165354 96.941792" clip-path="url(#p9b6cbc1493)"/></g><g id="line2d_20"><g><use x="26.985" y="96.942" stroke="#000" stroke-width=".8" xlink:href="#m007cf2124c"/></g></g><g id="text_11"><defs><path id="DejaVuSans-52" d="M 37.796875 64.3125 L 12.890625 25.390625 L 37.796875 25.390625 z M 35.203125 72.90625 L 47.609375 72.90625 L 47.609375 25.390625 L 58.015625 25.390625 L 58.015625 17.1875 L 47.609375 17.1875 L 47.609375 0 L 37.796875 0 L 37.796875 17.1875 L 4.890625 17.1875 L 4.890625 26.703125 z"/></defs><g transform="translate(18.394646 99.981167)scale(0.08 -0.08)"><use xlink:href="#DejaVuSans-52"/></g></g></g><g id="ytick_6"><g id="line2d_21"><path fill="none" stroke="#000" stroke-linecap="square" stroke-opacity=".1" stroke-width=".5" d="M 26.984646 58.081666 L 429.165354 58.081666" clip-path="url(#p9b6cbc1493)"/></g><g id="line2d_22"><g><use x="26.985" y="58.082" stroke="#000" stroke-width=".8" xlink:href="#m007cf2124c"/></g></g><g id="text_12"><g transform="translate(18.394646 61.121041)scale(0.08 -0.08)"><use xlink:href="#DejaVuSans-53"/></g></g></g><g id="text_13"><defs><path id="DejaVuSans-Oblique-121" d="M 24.8125 -5.078125 Q 18.5625 -15.578125 14.625 -18.1875 Q 10.6875 -20.796875 4.59375 -20.796875 L -2.484375 -20.796875 L -0.984375 -13.28125 L 4.203125 -13.28125 Q 7.953125 -13.28125 10.59375 -11.234375 Q 13.234375 -9.1875 16.5 -3.21875 L 19.28125 2 L 7.171875 54.6875 L 16.703125 54.6875 L 25.78125 12.796875 L 50.875 54.6875 L 60.296875 54.6875 z"/></defs><g transform="translate(12.084646 142.698)rotate(-90)scale(0.11 -0.11)"><use transform="translate(0 0.3125)" xlink:href="#DejaVuSans-Oblique-121"/></g></g></g><g id="line2d_23"><path fill="none" stroke="#009afa" stroke-linecap="round" d="M 38.367119 111.49938 L 38.556826 111.41842 L 38.746534 110.924289 L 39.12595 108.741581 L 39.505366 105.099982 L 40.074489 97.417745 L 41.212737 77.726559 L 42.540692 55.541277 L 43.489231 43.594541 L 44.248063 36.716454 L 45.006894 31.925458 L 45.576018 29.467427 L 46.145142 27.809754 L 46.714265 26.826763 L 47.093681 26.499859 L 47.473097 26.413703 L 47.852513 26.557565 L 48.231928 26.927875 L 48.801052 27.917695 L 49.370176 29.469048 L 49.939299 31.660767 L 50.508423 34.607349 L 51.267254 39.965452 L 52.026086 47.315899 L 52.784918 56.990953 L 53.733457 72.412671 L 56.199659 116.411907 L 56.768783 122.109928 L 57.148199 124.015831 L 57.337907 124.353889 L 57.527615 124.2755 L 57.717322 123.78394 L 58.096738 121.606377 L 58.476154 117.969925 L 59.045278 110.295412 L 60.183525 90.619689 L 61.51148 68.45247 L 62.460019 56.518651 L 63.218851 49.650908 L 63.977683 44.870264 L 64.546806 42.420002 L 65.11593 40.770103 L 65.685053 39.794891 L 66.064469 39.473175 L 66.443885 39.39221 L 66.823301 39.541264 L 67.202717 39.916768 L 67.77184 40.914384 L 68.340964 42.473537 L 68.910087 44.673061 L 69.479211 47.627453 L 70.238043 52.995977 L 70.996874 60.356852 L 71.755706 70.042343 L 72.704245 85.477119 L 75.170448 129.510367 L 75.739571 135.216249 L 76.118987 137.127395 L 76.308695 137.468076 L 76.498403 137.39231 L 76.688111 136.903374 L 77.067526 134.73106 L 77.446942 131.099859 L 78.016066 123.433226 L 79.154313 103.773278 L 80.482268 81.624487 L 81.430808 69.703847 L 82.189639 62.846656 L 82.948471 58.076573 L 83.517594 55.634237 L 84.086718 53.992268 L 84.655842 53.024992 L 85.035257 52.708569 L 85.414673 52.632899 L 85.794089 52.787251 L 86.173505 53.168055 L 86.742628 54.173624 L 87.311752 55.740734 L 87.880876 57.948221 L 88.449999 60.910581 L 89.208831 66.289735 L 89.967662 73.66125 L 90.726494 83.357389 L 91.675033 98.805486 L 94.141236 142.873433 L 94.710359 148.587335 L 95.089775 150.503831 L 95.279483 150.847187 L 95.469191 150.774098 L 95.658899 150.287838 L 96.038315 148.120879 L 96.41773 144.495035 L 96.986854 136.836442 L 98.125101 117.192587 L 99.453056 95.062596 L 100.401596 83.155401 L 101.160427 76.308975 L 101.919259 71.549666 L 102.488382 69.115416 L 103.057506 67.481539 L 103.62663 66.522359 L 104.006046 66.211336 L 104.385461 66.141068 L 104.764877 66.300824 L 105.144293 66.687035 L 105.713416 67.700717 L 106.28254 69.275947 L 106.851664 71.491557 L 107.420787 74.462045 L 108.179619 79.852045 L 108.93845 87.234414 L 109.697282 96.941416 L 110.645821 112.403104 L 113.112024 156.50645 L 113.681147 162.228535 L 114.060563 164.150488 L 114.250271 164.496575 L 114.439979 164.426215 L 114.629687 163.942686 L 115.009103 161.78119 L 115.388518 158.160811 L 115.957642 150.51042 L 117.095889 130.882983 L 118.423845 108.772173 L 119.372384 96.878694 L 120.131215 90.043251 L 120.890047 85.294935 L 121.459171 82.868934 L 122.028294 81.243311 L 122.597418 80.292391 L 122.976834 79.986877 L 123.356249 79.922121 L 123.735665 80.08739 L 124.115081 80.479116 L 124.684205 81.501077 L 125.253328 83.084589 L 125.822452 85.308487 L 126.391576 88.287268 L 127.150407 93.688332 L 127.909239 101.081774 L 128.66807 110.799858 L 129.61661 126.275412 L 132.082812 170.414873 L 132.651936 176.145305 L 133.031351 178.072827 L 133.221059 178.421698 L 133.410767 178.354123 L 133.600475 177.87338 L 133.979891 175.717457 L 134.359307 172.102654 L 134.92843 164.460631 L 136.066677 144.849945 L 137.394633 122.758701 L 138.343172 110.879216 L 139.102004 104.054978 L 139.860835 99.317875 L 140.429959 96.900291 L 140.999082 95.28309 L 141.568206 94.340596 L 141.947622 94.040702 L 142.327038 93.981569 L 142.706453 94.152463 L 143.085869 94.549816 L 143.654993 95.580222 L 144.224116 97.172184 L 144.79324 99.404537 L 145.362364 102.391778 L 146.121195 107.80413 L 146.880027 115.20887 L 147.638858 124.93826 L 148.587398 140.427959 L 151.0536 184.604265 L 151.622724 190.343213 L 152.00214 192.276415 L 152.191847 192.628127 L 152.381555 192.563394 L 152.571263 192.085493 L 152.950679 189.935256 L 153.330095 186.326142 L 153.899218 178.692655 L 155.037466 159.099057 L 156.365421 137.027777 L 157.31396 125.162567 L 158.072792 118.349761 L 158.831623 113.624099 L 159.400747 111.215101 L 159.969871 109.606491 L 160.538994 108.672593 L 160.91841 108.378434 L 161.297826 108.325036 L 161.677241 108.501669 L 162.056657 108.904763 L 162.625781 109.943784 L 163.194905 111.544367 L 163.764028 113.785346 L 164.333152 116.781218 L 165.091983 122.205087 L 165.850815 129.621352 L 166.609646 139.362277 L 167.558186 154.866407 L 170.024388 199.080302 L 170.593512 204.827938 L 170.972928 206.766935 L 171.162636 207.121545 L 171.352343 207.059711 L 171.542051 206.58471 L 171.921467 204.440274 L 172.300883 200.836962 L 172.870006 193.212184 L 174.008254 173.636021 L 175.336209 151.585106 L 176.284748 139.734462 L 177.04358 132.933318 L 177.802411 128.219327 L 178.371535 125.819088 L 178.940659 124.219244 L 179.509782 123.294116 L 179.889198 123.005807 L 180.268614 122.958261 L 180.64803 123.140749 L 181.027445 123.5497 L 181.596569 124.59751 L 182.165693 126.206888 L 182.734816 128.456667 L 183.30394 131.461345 L 184.062772 136.896962 L 184.821603 144.324985 L 185.580435 154.077678 L 186.528974 169.596531 L 188.995176 213.848773 L 189.5643 219.605274 L 189.943716 221.550182 L 190.133424 221.90775 L 190.323132 221.848874 L 190.512839 221.37683 L 190.892255 219.238312 L 191.271671 215.640921 L 191.840795 208.025028 L 192.979042 188.466651 L 194.306997 166.436514 L 195.255537 154.600728 L 196.014368 147.811481 L 196.7732 143.109398 L 197.342323 140.718096 L 197.911447 139.127194 L 198.48057 138.211014 L 198.859986 137.928672 L 199.239402 137.887097 L 199.618818 138.075557 L 199.998234 138.490483 L 200.567357 139.547261 L 201.136481 141.165611 L 201.705604 143.424368 L 202.274728 146.438029 L 203.03356 151.885633 L 203.792391 159.325651 L 204.551223 169.090349 L 205.499762 184.624223 L 207.965965 228.915588 L 208.535088 234.681131 L 208.914504 236.632071 L 209.104212 236.992655 L 209.29392 236.936797 L 209.483628 236.467771 L 209.863043 234.335291 L 210.242459 230.743939 L 210.811583 223.137111 L 211.94983 203.596879 L 213.277785 181.587939 L 214.226325 169.767312 L 214.985156 162.990204 L 215.743988 158.300268 L 216.313111 155.918084 L 216.882235 154.336304 L 217.451359 153.429252 L 217.830774 153.152999 L 218.21019 153.117515 L 218.589606 153.312069 L 218.969022 153.733091 L 219.538145 154.799017 L 220.107269 156.426521 L 220.676393 158.694437 L 221.245516 161.717263 L 222.004348 167.177094 L 222.763179 174.629351 L 223.522011 184.406297 L 224.47055 199.955494 L 226.936753 244.286773 L 227.505876 250.061541 L 227.885292 252.018635 L 228.075 252.382297 L 228.264708 252.018635 L 228.644124 250.061541 L 229.023539 246.559927 L 229.592663 238.849478 L 230.541202 221.786138 L 232.248573 190.20604 L 233.197113 176.846454 L 233.955944 168.838184 L 234.714776 162.917091 L 235.473607 158.694437 L 236.232439 155.817506 L 236.801563 154.38415 L 237.370686 153.494216 L 237.750102 153.186428 L 238.129518 153.106 L 238.508933 153.260078 L 238.888349 153.662992 L 239.267765 154.336304 L 239.836889 155.918084 L 240.406012 158.300268 L 240.975136 161.636904 L 241.54426 166.095206 L 242.303091 174.03861 L 243.061923 184.398285 L 244.20017 203.596879 L 245.528125 225.922243 L 246.097249 232.709294 L 246.476665 235.595307 L 246.85608 236.936797 L 247.045788 236.992655 L 247.235496 236.632071 L 247.614912 234.681131 L 247.994328 231.185668 L 248.563451 223.48444 L 249.511991 206.436458 L 251.219362 174.883964 L 252.167901 161.539693 L 252.926732 153.543664 L 253.685564 147.634801 L 254.444396 143.424368 L 255.203227 140.559649 L 255.772351 139.135445 L 256.341474 138.254656 L 256.72089 137.952963 L 257.100306 137.878628 L 257.479722 138.038795 L 257.859137 138.447797 L 258.238553 139.127194 L 258.807677 140.718096 L 259.3768 143.109398 L 259.945924 146.455145 L 260.515048 150.922554 L 261.273879 158.878091 L 262.032711 169.249889 L 263.170958 188.466651 L 264.498913 210.813182 L 265.068037 217.609296 L 265.447453 220.501347 L 265.826868 221.848874 L 266.016576 221.90775 L 266.206284 221.550182 L 266.5857 219.605274 L 266.965116 216.11584 L 267.534239 208.423651 L 268.482779 191.390722 L 270.19015 159.865286 L 271.138689 146.536026 L 271.897521 138.551995 L 272.656352 132.655121 L 273.415184 128.456667 L 274.174015 125.603917 L 274.743139 124.188684 L 275.312262 123.316861 L 275.691678 123.021141 L 276.071094 122.952778 L 276.45051 123.118914 L 276.829926 123.533882 L 277.209341 124.219244 L 277.778465 125.819088 L 278.347589 128.219327 L 278.916712 131.574005 L 279.485836 136.05034 L 280.244667 144.01777 L 281.003499 154.401452 L 282.141746 173.636021 L 283.469701 196.0033 L 284.038825 202.808298 L 284.418241 205.706268 L 284.797657 207.059711 L 284.987364 207.121545 L 285.177072 206.766935 L 285.556488 204.827938 L 285.935904 201.344414 L 286.505027 193.661085 L 287.453567 176.642912 L 289.160938 145.143998 L 290.109477 131.829452 L 290.868309 123.857181 L 291.62714 117.972058 L 292.385972 113.785346 L 293.144803 110.944328 L 293.713927 109.537888 L 294.283051 108.674853 L 294.662466 108.38499 L 295.041882 108.322479 L 295.421298 108.494466 L 295.800714 108.915283 L 296.180129 109.606491 L 296.749253 111.215101 L 297.318377 113.624099 L 297.8875 116.987532 L 298.456624 121.472616 L 299.215456 129.451703 L 299.974287 139.847033 L 301.112534 159.099057 L 302.44049 181.486674 L 303.009613 188.300379 L 303.389029 191.204152 L 303.768445 192.563394 L 303.958153 192.628127 L 304.14786 192.276415 L 304.527276 190.343213 L 304.906692 186.865482 L 305.475816 179.190838 L 306.424355 162.187128 L 308.131726 130.714211 L 309.080265 117.414088 L 309.839097 109.453344 L 310.597928 103.57974 L 311.35676 99.404537 L 312.115591 96.575019 L 312.684715 95.177198 L 313.253839 94.322777 L 313.633255 94.038653 L 314.01267 93.98188 L 314.392086 94.159602 L 314.771502 94.586152 L 315.150918 95.28309 L 315.720041 96.900291 L 316.289165 99.317875 L 316.858289 102.68989 L 317.427412 107.18355 L 318.186244 115.174064 L 318.945075 125.580811 L 320.083323 144.849945 L 321.411278 167.257496 L 321.980401 174.079736 L 322.359817 176.989196 L 322.739233 178.354123 L 322.928941 178.421698 L 323.118649 178.072827 L 323.498064 176.145305 L 323.87748 172.673252 L 324.446604 165.007121 L 325.395143 148.017587 L 327.102514 116.570152 L 328.051054 103.284166 L 328.809885 95.334723 L 329.568717 89.472408 L 330.327548 85.308487 L 331.08638 82.490241 L 331.655503 81.100868 L 332.224627 80.25489 L 332.604043 79.976393 L 332.983458 79.925243 L 333.362874 80.108587 L 333.74229 80.540756 L 334.121706 81.243311 L 334.690829 82.868934 L 335.259953 85.294935 L 335.829077 88.67536 L 336.587908 94.954802 L 337.34674 103.558882 L 338.295279 117.641924 L 340.761482 158.160811 L 341.330605 163.055715 L 341.710021 164.426215 L 341.899729 164.496575 L 342.089437 164.150488 L 342.468853 162.228535 L 342.848268 158.762047 L 343.417392 151.10426 L 344.365931 134.128622 L 346.073302 102.706165 L 347.021842 89.434036 L 347.780673 81.495668 L 348.539505 75.64442 L 349.298336 71.491557 L 350.057168 68.684361 L 350.626291 67.303269 L 351.195415 66.465567 L 351.574831 66.192584 L 351.954247 66.146947 L 352.333662 66.335801 L 352.713078 66.773478 L 353.282202 67.945673 L 353.851325 69.830781 L 354.420449 72.564981 L 354.989573 76.308975 L 355.748404 83.155401 L 356.507236 92.37861 L 357.455775 107.137615 L 359.542562 142.203984 L 360.111685 148.120879 L 360.491101 150.287838 L 360.680809 150.774098 L 360.870517 150.847187 L 361.060225 150.503831 L 361.439641 148.587335 L 361.819056 145.126302 L 362.38818 137.476695 L 363.336719 120.514677 L 365.04409 89.116704 L 365.99263 75.858157 L 366.751461 67.930645 L 367.510293 62.090245 L 368.269124 57.948221 L 369.027956 55.151855 L 369.59708 53.77888 L 370.166203 52.949291 L 370.545619 52.681713 L 370.925035 52.641479 L 371.30445 52.835735 L 371.683866 53.27881 L 372.25299 54.4591 L 372.822114 56.352297 L 373.391237 59.094582 L 373.960361 62.846656 L 374.719192 69.703847 L 375.478024 78.937813 L 376.426563 93.710252 L 378.51335 128.806129 L 379.082474 134.73106 L 379.461889 136.903374 L 379.651597 137.39231 L 379.841305 137.468076 L 380.031013 137.127395 L 380.410429 135.216249 L 380.789845 131.760564 L 381.358968 124.118973 L 382.307508 107.170307 L 384.014879 75.796331 L 384.963418 62.551098 L 385.722249 54.634228 L 386.481081 48.804461 L 387.239913 44.673061 L 387.998744 41.887311 L 388.567868 40.522292 L 389.136991 39.700654 L 389.516407 39.438375 L 389.895823 39.403438 L 390.275239 39.602987 L 390.654654 40.051355 L 391.223778 41.239579 L 391.792902 43.140705 L 392.362025 45.890914 L 392.931149 49.650908 L 393.689981 56.518651 L 394.448812 65.763162 L 395.397351 80.548769 L 397.484138 115.673569 L 398.053262 121.606377 L 398.432678 123.78394 L 398.622385 124.2755 L 398.812093 124.353889 L 399.001801 124.015831 L 399.381217 122.109928 L 399.760633 118.659484 L 400.329756 111.025752 L 401.278296 94.090172 L 402.985667 62.73972 L 403.934206 49.507537 L 404.693038 41.601097 L 405.451869 35.781753 L 406.210701 31.660767 L 406.969532 28.885422 L 407.538656 27.528203 L 408.107779 26.714359 L 408.487195 26.457273 L 408.866611 26.427527 L 409.246027 26.632266 L 409.625443 27.085821 L 410.194566 28.281821 L 410.76369 30.19072 L 411.332813 32.948697 L 411.901937 36.716454 L 412.660769 43.594541 L 413.4196 52.849386 L 414.36814 67.6479 L 416.454926 102.801051 L 417.02405 108.741581 L 417.403466 110.924289 L 417.593174 111.41842 L 417.782881 111.49938 L 417.782881 111.49938" clip-path="url(#p9b6cbc1493)"/></g><g id="patch_3"><path fill="none" stroke="#000" stroke-linecap="square" stroke-linejoin="miter" d="M 26.984646 259.161354 L 26.984646 19.634646"/></g><g id="patch_4"><path fill="none" stroke="#000" stroke-linecap="square" stroke-linejoin="miter" stroke-width=".8" d="M 429.165354 259.161354 L 429.165354 19.634646"/></g><g id="patch_5"><path fill="none" stroke="#000" stroke-linecap="square" stroke-linejoin="miter" d="M 26.984646 259.161354 L 429.165354 259.161354"/></g><g id="patch_6"><path fill="none" stroke="#000" stroke-linecap="square" stroke-linejoin="miter" stroke-width=".8" d="M 26.984646 19.634646 L 429.165354 19.634646"/></g><g id="text_14"><defs><path id="DejaVuSans-65" d="M 34.1875 63.1875 L 20.796875 26.90625 L 47.609375 26.90625 z M 28.609375 72.90625 L 39.796875 72.90625 L 67.578125 0 L 57.328125 0 L 50.6875 18.703125 L 17.828125 18.703125 L 11.1875 0 L 0.78125 0 z"/><path id="DejaVuSans-99" d="M 48.78125 52.59375 L 48.78125 44.1875 Q 44.96875 46.296875 41.140625 47.34375 Q 37.3125 48.390625 33.40625 48.390625 Q 24.65625 48.390625 19.8125 42.84375 Q 14.984375 37.3125 14.984375 27.296875 Q 14.984375 17.28125 19.8125 11.734375 Q 24.65625 6.203125 33.40625 6.203125 Q 37.3125 6.203125 41.140625 7.25 Q 44.96875 8.296875 48.78125 10.40625 L 48.78125 2.09375 Q 45.015625 0.34375 40.984375 -0.53125 Q 36.96875 -1.421875 32.421875 -1.421875 Q 20.0625 -1.421875 12.78125 6.34375 Q 5.515625 14.109375 5.515625 27.296875 Q 5.515625 40.671875 12.859375 48.328125 Q 20.21875 56 33.015625 56 Q 37.15625 56 41.109375 55.140625 Q 45.0625 54.296875 48.78125 52.59375 z"/><path id="DejaVuSans-107" d="M 9.078125 75.984375 L 18.109375 75.984375 L 18.109375 31.109375 L 44.921875 54.6875 L 56.390625 54.6875 L 27.390625 29.109375 L 57.625 0 L 45.90625 0 L 18.109375 26.703125 L 18.109375 0 L 9.078125 0 z"/><path id="DejaVuSans-108" d="M 9.421875 75.984375 L 18.40625 75.984375 L 18.40625 0 L 9.421875 0 z"/><path id="DejaVuSans-101" d="M 56.203125 29.59375 L 56.203125 25.203125 L 14.890625 25.203125 Q 15.484375 15.921875 20.484375 11.0625 Q 25.484375 6.203125 34.421875 6.203125 Q 39.59375 6.203125 44.453125 7.46875 Q 49.3125 8.734375 54.109375 11.28125 L 54.109375 2.78125 Q 49.265625 0.734375 44.1875 -0.34375 Q 39.109375 -1.421875 33.890625 -1.421875 Q 20.796875 -1.421875 13.15625 6.1875 Q 5.515625 13.8125 5.515625 26.8125 Q 5.515625 40.234375 12.765625 48.109375 Q 20.015625 56 32.328125 56 Q 43.359375 56 49.78125 48.890625 Q 56.203125 41.796875 56.203125 29.59375 z M 47.21875 32.234375 Q 47.125 39.59375 43.09375 43.984375 Q 39.0625 48.390625 32.421875 48.390625 Q 24.90625 48.390625 20.390625 44.140625 Q 15.875 39.890625 15.1875 32.171875 z"/><path id="DejaVuSans-121" d="M 32.171875 -5.078125 Q 28.375 -14.84375 24.75 -17.8125 Q 21.140625 -20.796875 15.09375 -20.796875 L 7.90625 -20.796875 L 7.90625 -13.28125 L 13.1875 -13.28125 Q 16.890625 -13.28125 18.9375 -11.515625 Q 21 -9.765625 23.484375 -3.21875 L 25.09375 0.875 L 2.984375 54.6875 L 12.5 54.6875 L 29.59375 11.921875 L 46.6875 54.6875 L 56.203125 54.6875 z"/><path id="DejaVuSans-32"/><path id="DejaVuSans-70" d="M 9.8125 72.90625 L 51.703125 72.90625 L 51.703125 64.59375 L 19.671875 64.59375 L 19.671875 43.109375 L 48.578125 43.109375 L 48.578125 34.8125 L 19.671875 34.8125 L 19.671875 0 L 9.8125 0 z"/><path id="DejaVuSans-117" d="M 8.5 21.578125 L 8.5 54.6875 L 17.484375 54.6875 L 17.484375 21.921875 Q 17.484375 14.15625 20.5 10.265625 Q 23.53125 6.390625 29.59375 6.390625 Q 36.859375 6.390625 41.078125 11.03125 Q 45.3125 15.671875 45.3125 23.6875 L 45.3125 54.6875 L 54.296875 54.6875 L 54.296875 0 L 45.3125 0 L 45.3125 8.40625 Q 42.046875 3.421875 37.71875 1 Q 33.40625 -1.421875 27.6875 -1.421875 Q 18.265625 -1.421875 13.375 4.4375 Q 8.5 10.296875 8.5 21.578125 z M 31.109375 56 z"/><path id="DejaVuSans-110" d="M 54.890625 33.015625 L 54.890625 0 L 45.90625 0 L 45.90625 32.71875 Q 45.90625 40.484375 42.875 44.328125 Q 39.84375 48.1875 33.796875 48.1875 Q 26.515625 48.1875 22.3125 43.546875 Q 18.109375 38.921875 18.109375 30.90625 L 18.109375 0 L 9.078125 0 L 9.078125 54.6875 L 18.109375 54.6875 L 18.109375 46.1875 Q 21.34375 51.125 25.703125 53.5625 Q 30.078125 56 35.796875 56 Q 45.21875 56 50.046875 50.171875 Q 54.890625 44.34375 54.890625 33.015625 z"/><path id="DejaVuSans-116" d="M 18.3125 70.21875 L 18.3125 54.6875 L 36.8125 54.6875 L 36.8125 47.703125 L 18.3125 47.703125 L 18.3125 18.015625 Q 18.3125 11.328125 20.140625 9.421875 Q 21.96875 7.515625 27.59375 7.515625 L 36.8125 7.515625 L 36.8125 0 L 27.59375 0 Q 17.1875 0 13.234375 3.875 Q 9.28125 7.765625 9.28125 18.015625 L 9.28125 47.703125 L 2.6875 47.703125 L 2.6875 54.6875 L 9.28125 54.6875 L 9.28125 70.21875 z"/><path id="DejaVuSans-105" d="M 9.421875 54.6875 L 18.40625 54.6875 L 18.40625 0 L 9.421875 0 z M 9.421875 75.984375 L 18.40625 75.984375 L 18.40625 64.59375 L 9.421875 64.59375 z"/><path id="DejaVuSans-111" d="M 30.609375 48.390625 Q 23.390625 48.390625 19.1875 42.75 Q 14.984375 37.109375 14.984375 27.296875 Q 14.984375 17.484375 19.15625 11.84375 Q 23.34375 6.203125 30.609375 6.203125 Q 37.796875 6.203125 41.984375 11.859375 Q 46.1875 17.53125 46.1875 27.296875 Q 46.1875 37.015625 41.984375 42.703125 Q 37.796875 48.390625 30.609375 48.390625 z M 30.609375 56 Q 42.328125 56 49.015625 48.375 Q 55.71875 40.765625 55.71875 27.296875 Q 55.71875 13.875 49.015625 6.21875 Q 42.328125 -1.421875 30.609375 -1.421875 Q 18.84375 -1.421875 12.171875 6.21875 Q 5.515625 13.875 5.515625 27.296875 Q 5.515625 40.765625 12.171875 48.375 Q 18.84375 56 30.609375 56 z"/></defs><g transform="translate(165.637187 13.634646)scale(0.14 -0.14)"><use xlink:href="#DejaVuSans-65"/><use x="68.393" xlink:href="#DejaVuSans-99"/><use x="123.373" xlink:href="#DejaVuSans-107"/><use x="181.283" xlink:href="#DejaVuSans-108"/><use x="209.066" xlink:href="#DejaVuSans-101"/><use x="270.59" xlink:href="#DejaVuSans-121"/><use x="329.754" xlink:href="#DejaVuSans-45"/><use x="365.838" xlink:href="#DejaVuSans-49"/><use x="429.461" xlink:href="#DejaVuSans-32"/><use x="461.248" xlink:href="#DejaVuSans-70"/><use x="518.689" xlink:href="#DejaVuSans-117"/><use x="582.068" xlink:href="#DejaVuSans-110"/><use x="645.447" xlink:href="#DejaVuSans-99"/><use x="700.428" xlink:href="#DejaVuSans-116"/><use x="739.637" xlink:href="#DejaVuSans-105"/><use x="767.42" xlink:href="#DejaVuSans-111"/><use x="828.602" xlink:href="#DejaVuSans-110"/></g></g></g></g><defs><clipPath id="p9b6cbc1493"><rect width="402.181" height="239.527" x="26.985" y="19.635"/></clipPath></defs></svg>